<svg width="83" height="41" viewBox="0 0 83 41" fill="none" xmlns="http://www.w3.org/2000/svg">
<path d="M78.0581 40.5712H4.27903C2.01309 40.5712 0.167969 38.7498 0.167969 36.5131V4.41215C0.167969 2.17538 2.01309 0.354004 4.27903 0.354004H78.0581C80.324 0.354004 82.1692 2.17538 82.1692 4.41215V36.5162C82.1692 38.753 80.324 40.5744 78.0581 40.5744V40.5712ZM4.27903 1.30304C2.54073 1.30304 1.12938 2.69623 1.12938 4.41215V36.5162C1.12938 38.229 2.54073 39.6254 4.27903 39.6254H78.0581C79.7932 39.6254 81.2077 38.2322 81.2077 36.5162V4.41215C81.2077 2.69942 79.7964 1.30304 78.0581 1.30304H4.27903Z" fill="white"/>
<path d="M5.03003 36.9956C4.77754 36.9956 4.56066 36.8869 4.44736 36.6601L4.44089 36.9572H3.97799V34.3498H4.48297V35.4426C4.57361 35.2285 4.80991 35.1071 5.03974 35.1071C5.59652 35.1071 5.80369 35.5609 5.80369 36.0434C5.80369 36.5259 5.59328 36.9988 5.03003 36.9988V36.9956ZM4.86818 35.4554C4.55095 35.4554 4.47002 35.7877 4.47002 36.0402C4.47002 36.2926 4.55095 36.6441 4.86494 36.6441C5.17894 36.6441 5.25986 36.299 5.25986 36.0402C5.25986 35.7813 5.19836 35.4554 4.86818 35.4554Z" fill="white"/>
<path d="M7.08233 37.1617C6.99816 37.4142 6.8525 37.7752 6.39931 37.7752C6.25688 37.7752 6.16624 37.7561 6.03676 37.7305L6.05942 37.3854C6.12416 37.4078 6.19214 37.4205 6.26011 37.4205C6.42844 37.4205 6.5385 37.2256 6.58058 37.1074L6.61295 37.0051L5.94936 35.1358H6.48347L6.87839 36.5354L7.25713 35.1358H7.75564L7.08233 37.1585V37.1617Z" fill="white"/>
<path d="M9.76261 36.9956C9.51012 36.9956 9.25439 36.9668 9.01161 36.8901L9.03104 36.4779C9.24468 36.5865 9.47775 36.6217 9.71729 36.6217C9.95684 36.6217 10.1867 36.5418 10.1867 36.2862C10.1867 36.1008 9.9277 36.005 9.74966 35.9283L9.50041 35.8196C9.21231 35.7014 8.99543 35.5257 8.99543 35.1965C8.99543 34.6725 9.54249 34.5063 9.98921 34.5063C10.1996 34.5063 10.4036 34.5287 10.6042 34.583L10.5848 34.9825C10.4133 34.909 10.2061 34.877 10.0216 34.877C9.82088 34.877 9.53602 34.9345 9.53602 35.1742C9.53602 35.3403 9.74966 35.4298 9.91152 35.4937L10.177 35.596C10.5007 35.7238 10.737 35.8899 10.737 36.2638C10.737 36.791 10.2449 36.9987 9.76585 36.9987L9.76261 36.9956Z" fill="white"/>
<path d="M11.9573 36.9956C11.3488 36.9956 10.9927 36.6217 10.9927 36.0401C10.9927 35.4586 11.3909 35.1039 11.9573 35.1039C12.5497 35.1039 12.922 35.4394 12.922 36.0401C12.922 36.6409 12.5562 36.9956 11.9573 36.9956ZM11.9573 35.4426C11.6369 35.4426 11.5365 35.7653 11.5365 36.0401C11.5365 36.3405 11.6433 36.6536 11.9573 36.6536C12.2713 36.6536 12.3782 36.3437 12.3782 36.0401C12.3782 35.7621 12.2875 35.4426 11.9573 35.4426Z" fill="white"/>
<path d="M14.492 36.954L14.4822 36.6504C14.3625 36.8773 14.1456 36.9956 13.8899 36.9956C13.4464 36.9956 13.2716 36.7271 13.2716 36.3117V35.139H13.7766V36.1999C13.7766 36.4172 13.8089 36.6345 14.0808 36.6345C14.3657 36.6345 14.4466 36.3788 14.4466 36.1392V35.1422H14.9516V36.5482C14.9516 36.6824 14.9549 36.823 14.971 36.9572H14.4952L14.492 36.954Z" fill="white"/>
<path d="M16.0716 36.9956C15.6541 36.9956 15.5505 36.7303 15.5505 36.3501V35.4682H15.2203V35.139H15.5505V34.7716L16.0555 34.6086V35.139H16.4666V35.4682H16.0555V36.3597C16.0555 36.5131 16.0943 36.6345 16.2756 36.6345C16.3468 36.6345 16.4148 36.6217 16.4763 36.5961L16.4892 36.9285C16.3565 36.9732 16.2076 36.9987 16.0684 36.9987L16.0716 36.9956Z" fill="white"/>
<path d="M17.9783 35.8899C17.9783 35.6727 17.9427 35.4586 17.6707 35.4586C17.3988 35.4586 17.305 35.711 17.305 35.9475V36.954H16.8V34.3466H17.305V35.4394C17.415 35.2157 17.6157 35.1039 17.8682 35.1039C18.302 35.1039 18.4832 35.3659 18.4832 35.7781V36.9572H17.9783V35.8899Z" fill="white"/>
<path d="M20.5906 36.0657V36.9572H20.0597V34.5447H21.0891C21.5585 34.5447 21.9145 34.8131 21.9145 35.2956C21.9145 35.8101 21.5487 36.0657 21.0761 36.0657H20.5906ZM20.8819 34.8994H20.5841V35.7014H20.7751C21.0729 35.7014 21.3642 35.6631 21.3642 35.2956C21.3642 35.0112 21.1409 34.8962 20.8787 34.8962L20.8819 34.8994Z" fill="white"/>
<path d="M22.9569 36.9956C22.3483 36.9956 21.9922 36.6217 21.9922 36.0401C21.9922 35.4586 22.3904 35.1039 22.9569 35.1039C23.5492 35.1039 23.9215 35.4394 23.9215 36.0401C23.9215 36.6409 23.5557 36.9956 22.9569 36.9956ZM22.9569 35.4426C22.6364 35.4426 22.536 35.7653 22.536 36.0401C22.536 36.3405 22.6429 36.6536 22.9569 36.6536C23.2709 36.6536 23.3777 36.3437 23.3777 36.0401C23.3777 35.7621 23.287 35.4426 22.9569 35.4426Z" fill="white"/>
<path d="M24.2711 36.954V34.3466H24.7761V36.954H24.2711Z" fill="white"/>
<path d="M25.6339 36.1743C25.6371 36.4875 25.8735 36.6856 26.1842 36.6856C26.359 36.6856 26.5824 36.6473 26.7378 36.5642L26.7604 36.8997C26.5565 36.9732 26.3007 36.9987 26.0839 36.9987C25.4688 36.9987 25.1354 36.6441 25.1354 36.0433C25.1354 35.5033 25.5012 35.1071 26.0321 35.1071C26.6212 35.1071 26.8575 35.5161 26.8575 36.0657V36.1775H25.6372L25.6339 36.1743ZM26.0321 35.4042C25.7505 35.4042 25.6339 35.695 25.6339 35.9059H26.3914C26.3914 35.6791 26.3105 35.4042 26.0321 35.4042Z" fill="white"/>
<path d="M38.99 11.899C36.9442 11.899 35.4131 10.8317 35.4131 8.70995C35.4131 6.70644 37.0672 5.52095 38.99 5.52095C39.5241 5.52095 40.1165 5.61362 40.6344 5.73504L40.5794 7.03237C40.1942 6.89177 39.7443 6.79272 39.3299 6.79272C38.1581 6.79272 37.3488 7.54363 37.3488 8.70995C37.3488 9.87627 38.0901 10.6272 39.2911 10.6272C39.741 10.6272 40.1813 10.5441 40.5956 10.3779L40.6506 11.6465C40.1327 11.8223 39.5338 11.8958 38.99 11.8958V11.899Z" fill="white"/>
<path d="M41.3919 11.7999V5.11514H43.1302V11.7967H41.3919V11.7999Z" fill="white"/>
<path d="M44.1499 6.36773V5.19183H45.8882V6.36773H44.1499ZM44.1499 11.7999V7.11865H45.8882V11.7999H44.1499Z" fill="white"/>
<path d="M52.8252 11.7999V8.99115C52.8252 8.58214 52.741 8.19549 52.2425 8.19549C51.7181 8.19549 51.5951 8.72273 51.5951 9.17009V11.8031H49.8762V8.99434C49.8762 8.59492 49.7921 8.19869 49.3033 8.19869C48.8145 8.19869 48.6462 8.72593 48.6462 9.17328V11.8063H46.9079V8.13478C46.9079 7.80246 46.9079 7.45736 46.869 7.12504H48.5135L48.5329 7.89513C48.8048 7.33913 49.3583 7.03237 50.0737 7.03237C50.7891 7.03237 51.2941 7.34872 51.4915 7.92069C51.7343 7.33593 52.385 7.03237 52.9838 7.03237C54.2139 7.03237 54.5603 7.79287 54.5603 8.8857V11.8063H52.822L52.8252 11.7999Z" fill="white"/>
<path d="M58.4868 11.7999L58.4577 11.0969C58.1016 11.5794 57.5481 11.9021 56.9363 11.9021C56.0526 11.9021 55.2918 11.4836 55.2918 10.5313C55.2918 9.27234 56.5316 8.85374 57.7714 8.85374C57.998 8.85374 58.2408 8.87292 58.4739 8.89209V8.78025C58.4739 8.17632 57.9657 7.99099 57.3474 7.99099C56.878 7.99099 56.3245 8.11241 55.8648 8.36165L55.8098 7.31357C56.3633 7.14741 57.0399 7.02598 57.6225 7.02598C58.9659 7.02598 60.1313 7.37747 60.1313 8.89848V10.6304C60.1313 11.2056 60.1313 11.4931 60.1701 11.7967H58.4901L58.4868 11.7999ZM58.4771 9.65898H58.2797C57.7455 9.65898 56.9071 9.73248 56.9071 10.3907C56.9071 10.7902 57.2632 10.9276 57.574 10.9276C58.2117 10.9276 58.4739 10.4099 58.4739 9.8539V9.65898H58.4771Z" fill="white"/>
<path d="M62.9928 11.899C61.8372 11.899 61.4811 11.2407 61.4811 10.1734V8.17952H60.6557V7.11226H61.4811V6.23033L63.2194 5.6935V7.11226H64.252V8.17952H63.2194V10.0712C63.2194 10.4419 63.323 10.7294 63.7535 10.7294C63.9218 10.7294 64.0999 10.6911 64.2617 10.6272L64.3103 11.6944C63.896 11.8255 63.4266 11.899 62.996 11.899H62.9928Z" fill="white"/>
<path d="M66.437 9.87947C66.4468 10.6112 67.1039 10.9276 67.7707 10.9276C68.2498 10.9276 68.8228 10.8541 69.2533 10.6208L69.3083 11.6401C68.7159 11.835 67.9941 11.899 67.3661 11.899C65.7508 11.899 64.7376 11.0841 64.7376 9.43211C64.7376 7.90152 65.8188 7.02279 67.2528 7.02279C68.9069 7.02279 69.5543 8.0517 69.5543 9.58868V9.87627H66.437V9.87947ZM67.2625 7.95264C66.6248 7.95264 66.4273 8.59172 66.4273 9.07423H68.0232C68.0232 8.58214 67.8808 7.95264 67.2625 7.95264Z" fill="white"/>
<path d="M39.1389 22.0251L37.3262 17.2321V22.0251H35.7109V15.8421H38.443L40.2654 20.6447V15.8421H41.871V22.0251H39.1389Z" fill="white"/>
<path d="M44.4347 20.1047C44.4445 20.8365 45.1016 21.1528 45.7684 21.1528C46.2475 21.1528 46.8205 21.0793 47.251 20.846L47.306 21.8654C46.7136 22.0603 45.9918 22.1242 45.3638 22.1242C43.7485 22.1242 42.7353 21.3094 42.7353 19.6574C42.7353 18.1268 43.8165 17.248 45.2505 17.248C46.9046 17.248 47.552 18.277 47.552 19.8139V20.1015H44.4347V20.1047ZM45.2602 18.1779C44.6225 18.1779 44.425 18.817 44.425 19.2995H46.0209C46.0209 18.8074 45.8785 18.1779 45.2602 18.1779Z" fill="white"/>
<path d="M51.4656 22.0251L51.4462 21.2551C51.1549 21.8398 50.5431 22.1178 49.9054 22.1178C48.8177 22.1178 48.2901 21.5139 48.2901 20.4594V17.3439H50.0284V20.0408C50.0284 20.4658 50.0737 20.9483 50.6305 20.9483C51.1873 20.9483 51.3329 20.4211 51.3329 19.9577V17.3439H53.0615V21.0058C53.0615 21.3381 53.0712 21.6928 53.1068 22.0251H51.4624H51.4656Z" fill="white"/>
<path d="M55.9878 22.1242C54.8322 22.1242 54.4761 21.466 54.4761 20.3987V18.4048H53.6507V17.3375H54.4761V16.4556L56.2144 15.9188V17.3375H57.247V18.4048H56.2144V20.2964C56.2144 20.6671 56.318 20.9547 56.7485 20.9547C56.9169 20.9547 57.0949 20.9163 57.2567 20.8524L57.3053 21.9197C56.891 22.0507 56.4216 22.1242 55.9911 22.1242H55.9878Z" fill="white"/>
<path d="M61.3225 18.769C61.1898 18.7147 61.0409 18.7051 60.8984 18.7051C60.0827 18.7051 59.7234 19.373 59.7234 20.0951V22.022H57.9851V18.3504C57.9851 18.0181 57.9851 17.6826 57.9462 17.3503H59.5907L59.6101 18.2674C59.8529 17.7305 60.3222 17.2385 60.9988 17.2385C61.1218 17.2385 61.2416 17.248 61.3646 17.2864L61.3193 18.769H61.3225Z" fill="white"/>
<path d="M64.7764 22.0251L64.7473 21.3222C64.3912 21.8047 63.8377 22.1274 63.2259 22.1274C62.3422 22.1274 61.5815 21.7088 61.5815 20.7566C61.5815 19.4976 62.8212 19.079 64.061 19.079C64.2876 19.079 64.5304 19.0982 64.7635 19.1173V19.0055C64.7635 18.4016 64.2553 18.2162 63.637 18.2162C63.1676 18.2162 62.6141 18.3377 62.1544 18.5869L62.0994 17.5388C62.6529 17.3727 63.3295 17.2512 63.9121 17.2512C65.2555 17.2512 66.4209 17.6027 66.4209 19.1237V20.8556C66.4209 21.4308 66.4209 21.7184 66.4597 22.022H64.7797L64.7764 22.0251ZM64.7667 19.8842H64.5693C64.0351 19.8842 63.1967 19.9577 63.1967 20.616C63.1967 21.0154 63.5528 21.1528 63.8636 21.1528C64.5013 21.1528 64.7635 20.6352 64.7635 20.0792V19.8842H64.7667Z" fill="white"/>
<path d="M67.3855 22.0251V15.3436H69.1238V22.0251H67.3855Z" fill="white"/>
<path d="M38.99 32.3495C36.9442 32.3495 35.4131 31.2822 35.4131 29.1605C35.4131 27.1569 37.0672 25.9715 38.99 25.9715C39.5241 25.9715 40.1165 26.0641 40.6344 26.1855L40.5794 27.4829C40.1942 27.3423 39.7443 27.2432 39.3299 27.2432C38.1581 27.2432 37.3488 27.9941 37.3488 29.1605C37.3488 30.3268 38.0901 31.0777 39.2911 31.0777C39.741 31.0777 40.1813 30.9946 40.5956 30.8284L40.6506 32.097C40.1327 32.2728 39.5338 32.3463 38.99 32.3463V32.3495Z" fill="white"/>
<path d="M43.8035 32.3495C42.1688 32.3495 41.1362 31.4963 41.1362 29.8826C41.1362 28.2689 42.3015 27.4733 43.8035 27.4733C45.3055 27.4733 46.4709 28.2146 46.4709 29.8826C46.4709 31.5506 45.3994 32.3495 43.8035 32.3495ZM43.8035 28.5597C43.1464 28.5597 42.9878 29.3106 42.9878 29.8858C42.9878 30.5632 43.1561 31.2566 43.8035 31.2566C44.4509 31.2566 44.6193 30.5696 44.6193 29.8858C44.6193 29.3106 44.4865 28.5597 43.8035 28.5597Z" fill="white"/>
<path d="M53.1554 32.2504V29.4417C53.1554 29.0326 53.0712 28.646 52.5727 28.646C52.0483 28.646 51.9253 29.1732 51.9253 29.6206V32.2536H50.2064V29.4448C50.2064 29.0454 50.1223 28.6492 49.6335 28.6492C49.1447 28.6492 48.9763 29.1764 48.9763 29.6238V32.2568H47.238V28.5853C47.238 28.253 47.238 27.9079 47.1992 27.5755H48.8436L48.863 28.3456C49.135 27.7896 49.6885 27.4829 50.4039 27.4829C51.1193 27.4829 51.6243 27.7992 51.8217 28.3712C52.0645 27.7864 52.7151 27.4829 53.314 27.4829C54.5441 27.4829 54.8905 28.2434 54.8905 29.3362V32.2568H53.1521L53.1554 32.2504Z" fill="white"/>
<path d="M59.0307 32.3495C58.448 32.3495 57.875 32.0427 57.6517 31.4963V34.2507H55.9134V28.7834C55.9134 28.2178 55.8939 27.8855 55.8745 27.5691H57.5189L57.5481 28.3392C57.82 27.7641 58.4415 27.4765 59.0792 27.4765C60.5068 27.4765 61.07 28.6364 61.07 29.8858C61.07 31.1352 60.5165 32.3526 59.0339 32.3526L59.0307 32.3495ZM58.4221 28.6045C57.7261 28.6045 57.6063 29.3458 57.6063 29.8826C57.6063 30.4194 57.7294 31.2183 58.4156 31.2183C59.1019 31.2183 59.2216 30.4226 59.2216 29.8826C59.2216 29.3426 59.1181 28.6045 58.4253 28.6045H58.4221Z" fill="white"/>
<path d="M64.7376 32.2504L64.7085 31.5474C64.3524 32.0299 63.7988 32.3526 63.187 32.3526C62.3033 32.3526 61.5426 31.9341 61.5426 30.9818C61.5426 29.7228 62.7824 29.3042 64.0222 29.3042C64.2488 29.3042 64.4916 29.3234 64.7246 29.3426V29.2308C64.7246 28.6268 64.2164 28.4415 63.5981 28.4415C63.1288 28.4415 62.5752 28.5629 62.1156 28.8122L62.0605 27.7641C62.6141 27.5979 63.2906 27.4765 63.8733 27.4765C65.2167 27.4765 66.382 27.828 66.382 29.349V31.0809C66.382 31.6561 66.382 31.9436 66.4209 32.2472H64.7408L64.7376 32.2504ZM64.7279 30.1095H64.5304C63.9963 30.1095 63.1579 30.183 63.1579 30.8412C63.1579 31.2407 63.514 31.3781 63.8247 31.3781C64.4624 31.3781 64.7246 30.8604 64.7246 30.3044V30.1095H64.7279Z" fill="white"/>
<path d="M70.3895 32.2504V29.5439C70.3895 29.1189 70.3442 28.646 69.7874 28.646C69.2306 28.646 69.0817 29.1636 69.0817 29.627V32.2504H67.3434V28.5789C67.3434 28.2466 67.3434 27.9015 67.3046 27.5691H68.949L68.9684 28.3392C69.2598 27.7545 69.8716 27.4765 70.5093 27.4765C71.6002 27.4765 72.1245 28.0804 72.1245 29.1349V32.2504H70.3863H70.3895Z" fill="white"/>
<path d="M76.145 32.5827C75.9475 33.1866 75.5817 34.3434 74.1153 34.3434C73.646 34.3434 73.3255 34.2891 72.9144 34.2124L72.9694 33.1291C73.1572 33.1835 73.3643 33.2122 73.5618 33.2122C73.9373 33.2122 74.2189 32.8799 74.3322 32.5923L74.4067 32.3782L72.6684 27.5691H74.4714L75.326 30.8796L76.077 27.5691H77.7667L76.1417 32.5827H76.145Z" fill="white"/>
<path d="M9.03427 28.9847C9.00514 28.9016 8.9663 28.8345 8.9145 28.7866C8.86271 28.7387 8.79473 28.7163 8.70409 28.7163C8.61346 28.7163 8.54548 28.7387 8.49368 28.7866C8.44189 28.8345 8.40305 28.9016 8.37715 28.9847C8.35125 29.0678 8.33183 29.17 8.32536 29.2851C8.31565 29.4001 8.31241 29.5247 8.31241 29.6589C8.31241 29.7804 8.31565 29.8986 8.32212 30.0104C8.3286 30.1255 8.34478 30.2245 8.37068 30.3108C8.39657 30.3971 8.43542 30.4674 8.48721 30.5217C8.539 30.576 8.61022 30.6016 8.70409 30.6016C8.79797 30.6016 8.86595 30.576 8.92098 30.5217C8.97601 30.4674 9.01485 30.3971 9.04075 30.3108C9.06664 30.2245 9.08607 30.1223 9.09254 30.0104C9.09902 29.8954 9.10225 29.7804 9.10225 29.6589C9.10225 29.5247 9.09902 29.4001 9.0893 29.2851C9.07959 29.17 9.06341 29.071 9.03427 28.9847Z" fill="white"/>
<path d="M17.7938 4.84353C10.0701 4.84353 3.80966 11.0234 3.80966 18.6476V32.4517H17.7938C25.5174 32.4517 31.7779 26.2718 31.7779 18.6476V4.84353H17.7938ZM7.1147 31.0617H4.92968V30.4802L5.38287 30.1255C5.45085 30.0711 5.53825 30.0104 5.64184 29.9433C5.74542 29.8762 5.84577 29.7995 5.93965 29.7165C6.03352 29.6334 6.11768 29.5471 6.18566 29.4576C6.25688 29.365 6.28925 29.2723 6.28925 29.1732C6.28925 29.0965 6.27306 29.0326 6.24069 28.9815C6.20832 28.9304 6.16624 28.8888 6.11121 28.8537C6.05942 28.8217 6.00115 28.7994 5.93317 28.7866C5.86843 28.7738 5.80045 28.7674 5.73247 28.7674C5.60947 28.7674 5.48646 28.7866 5.36021 28.8217C5.23397 28.8569 5.11743 28.8984 5.00737 28.9464L4.98471 28.3776C5.13685 28.3297 5.29223 28.2881 5.44438 28.2562C5.59652 28.2242 5.75513 28.2082 5.91699 28.2082C6.05942 28.2082 6.20185 28.221 6.34104 28.2498C6.48347 28.2785 6.60648 28.3233 6.71978 28.3872C6.83307 28.4511 6.92047 28.5405 6.99169 28.6492C7.06291 28.761 7.09528 28.8984 7.09528 29.0614C7.09528 29.1956 7.06291 29.3234 6.99816 29.4416C6.93342 29.5599 6.8525 29.6717 6.75215 29.7772C6.6518 29.8826 6.54498 29.9785 6.42844 30.0648C6.31191 30.1542 6.20185 30.2341 6.09502 30.3044L5.86843 30.5153H7.11146V31.0585L7.1147 31.0617ZM9.85001 30.2117C9.80793 30.3875 9.73995 30.5409 9.64608 30.6719C9.5522 30.8029 9.42596 30.9083 9.27382 30.9882C9.12167 31.0681 8.93392 31.1064 8.71057 31.1064C8.48721 31.1064 8.29946 31.0681 8.14732 30.9914C7.99518 30.9147 7.86893 30.8093 7.77506 30.6783C7.68118 30.5473 7.61321 30.3939 7.57112 30.2181C7.52904 30.0424 7.50962 29.857 7.50962 29.6589C7.50962 29.4608 7.53228 29.2755 7.57436 29.0997C7.61644 28.924 7.68442 28.7706 7.78153 28.6396C7.87541 28.5086 8.00165 28.4031 8.15379 28.3265C8.30594 28.2498 8.49045 28.2114 8.71057 28.2114C8.93069 28.2114 9.1152 28.2498 9.27058 28.3265C9.42596 28.4031 9.54897 28.5086 9.64284 28.6428C9.73672 28.777 9.80793 28.9304 9.85001 29.1061C9.89209 29.2819 9.91475 29.4672 9.91475 29.6589C9.91475 29.8507 9.89533 30.036 9.85325 30.2117H9.85001ZM12.4008 31.0617H10.2158V30.4802L10.669 30.1255C10.737 30.0711 10.8244 30.0104 10.928 29.9433C11.0315 29.8762 11.1319 29.7995 11.2258 29.7165C11.3196 29.6334 11.4038 29.5471 11.4718 29.4576C11.543 29.365 11.5754 29.2723 11.5754 29.1732C11.5754 29.0965 11.5592 29.0326 11.5268 28.9815C11.4944 28.9304 11.4524 28.8888 11.3973 28.8537C11.3455 28.8217 11.2873 28.7994 11.2193 28.7866C11.1545 28.7738 11.0866 28.7674 11.0186 28.7674C10.8956 28.7674 10.7726 28.7866 10.6463 28.8217C10.5201 28.8569 10.4036 28.8984 10.2935 28.9464L10.2708 28.3776C10.423 28.3297 10.5784 28.2881 10.7305 28.2562C10.8826 28.2242 11.0413 28.2082 11.2031 28.2082C11.3455 28.2082 11.488 28.221 11.6272 28.2498C11.7696 28.2785 11.8926 28.3233 12.0059 28.3872C12.1192 28.4511 12.2066 28.5405 12.2778 28.6492C12.349 28.761 12.3814 28.8984 12.3814 29.0614C12.3814 29.1956 12.349 29.3234 12.2843 29.4416C12.2195 29.5599 12.1386 29.6717 12.0383 29.7772C11.9379 29.8826 11.8311 29.9785 11.7146 30.0648C11.598 30.1542 11.488 30.2341 11.3811 30.3044L11.1545 30.5153H12.3976V31.0585L12.4008 31.0617ZM14.6473 31.0617H13.8478V29.0294L13.2425 29.464L12.9964 28.8984L13.9611 28.2498H14.6473V31.0617ZM21.4063 27.0771C20.7395 20.8397 19.6324 19.6158 18.7098 18.5933C18.5998 18.4719 18.3311 18.3345 18.3635 18.1843C18.9818 15.3212 23.2482 15.7366 23.2482 15.7366C23.2482 15.7366 23.614 15.3883 22.0473 15.1487C21.238 15.024 19.9011 14.8994 19.2342 14.7301C17.4183 14.2699 16.6317 13.4743 15.1297 14.4649C13.8413 15.3148 14.1391 16.6473 13.3428 17.6347C11.5818 19.8203 10.9312 23.102 10.8308 24.9361C9.35151 23.3321 8.44837 21.1975 8.44837 18.8585C8.44837 13.8673 12.5465 9.82195 17.6028 9.82195C22.6591 9.82195 26.7572 13.8673 26.7572 18.8585C26.7572 22.5077 24.5624 25.6519 21.4096 27.0771H21.4063Z" fill="white"/>
</svg>
