<svg width="103" height="41" viewBox="0 0 103 41" fill="none" xmlns="http://www.w3.org/2000/svg">
<path d="M20.8203 40.3223C32.319 40.3223 41.6406 31.368 41.6406 20.3223C41.6406 17.4845 41.0254 14.7848 39.916 12.3396C39.6651 12.6232 39.3795 12.8993 39.0595 13.1682C38.9286 13.2783 38.8007 13.3823 38.676 13.4802C39.5554 15.5961 40.0391 17.905 40.0391 20.3223C40.0391 30.5183 31.4345 38.7838 20.8203 38.7838C10.2061 38.7838 1.60156 30.5183 1.60156 20.3223C1.60156 10.1263 10.2061 1.86076 20.8203 1.86076C23.9951 1.86076 26.9902 2.60025 29.6289 3.90971V3.49662C29.6289 3.23677 29.7354 3.00261 29.9323 2.81972C29.9977 2.75906 30.1748 2.6739 30.4294 2.57507C27.5546 1.13585 24.2864 0.322266 20.8203 0.322266C9.32157 0.322266 0 9.27657 0 20.3223C0 31.368 9.32157 40.3223 20.8203 40.3223Z" fill="white"/>
<path d="M45.5178 3.70605V37.5522H45.4512V3.72144L45.5178 3.70605Z" fill="white"/>
<path d="M17.185 18.4714H21.2957C21.6821 18.4714 22.0687 18.4709 22.4553 18.4704C23.4605 18.4691 24.4657 18.4678 25.4674 18.4752C25.7777 18.4778 25.9541 18.438 25.9448 18.0673C25.9327 17.6237 25.9348 17.1793 25.9369 16.7348C25.9398 16.1112 25.9427 15.4876 25.9063 14.8667C25.7684 12.523 23.8444 10.5821 21.6179 10.4808C19.1741 10.3692 17.185 11.9727 16.7633 14.3946C16.6335 15.1618 16.6507 15.9335 16.6678 16.7051C16.6782 17.1706 16.6885 17.6362 16.6665 18.1006C16.6482 18.4769 16.8792 18.4744 17.1234 18.4718C17.1439 18.4716 17.1645 18.4714 17.185 18.4714Z" fill="white"/>
<path d="M19.898 26.2598C19.8028 27.3882 19.8041 27.3882 20.9712 27.3882C21.2027 27.3756 21.4347 27.376 21.6661 27.3895C22.1306 27.4422 22.2555 27.2828 22.1808 26.8176C22.1214 26.4414 22.0873 26.0611 22.0533 25.6808C22.0188 25.2958 21.9843 24.9108 21.9235 24.53C21.8604 24.111 21.9209 23.836 22.2465 23.5288C22.8879 22.8984 22.9096 21.8723 22.2954 21.2155C21.7045 20.5474 20.7024 20.4362 19.9791 20.9584C19.2288 21.5252 18.9264 22.6395 19.5699 23.2718C20.1511 23.849 20.0893 24.4245 20.0243 25.0306C20.0123 25.1423 20.0001 25.2552 19.9919 25.3692C19.9806 25.5327 19.9611 25.6957 19.9415 25.859C19.9255 25.9923 19.9096 26.1258 19.898 26.2598Z" fill="white"/>
<path fill-rule="evenodd" clip-rule="evenodd" d="M20.8205 2.78325C24.0146 2.78325 27.0172 3.57118 29.6291 4.95574V9.38506C29.6291 9.88572 29.7339 10.3809 29.9417 10.8676C30.1424 11.3378 30.3928 11.7579 30.6931 12.1269C30.9849 12.4854 31.3305 12.8322 31.7297 13.1677C32.1204 13.496 32.4834 13.7705 32.8197 13.9912C33.1508 14.2085 33.496 14.4138 33.8552 14.6071L34.1733 14.7762L34.6071 14.9933L34.7402 15.0536C34.7812 15.0719 34.8189 15.0886 34.8538 15.1037L34.9929 15.1624L35.0726 15.1926L35.1077 15.2043C35.2003 15.2314 35.2965 15.2448 35.3947 15.2448C35.5186 15.2448 35.6386 15.2236 35.7516 15.181L35.8991 15.1195L36.162 15.0029L36.2527 14.9603C36.3017 14.9368 36.3562 14.9098 36.4166 14.8792L36.6161 14.7762L36.9321 14.6082C37.2598 14.4319 37.5742 14.2467 37.8769 14.0516C38.6531 15.9986 39.0783 18.1125 39.0783 20.3217C39.0783 30.0079 30.904 37.8602 20.8205 37.8602C10.737 37.8602 2.56266 30.0079 2.56266 20.3217C2.56266 10.6355 10.737 2.78325 20.8205 2.78325ZM13.8937 29.5526C13.0046 29.5526 12.8138 29.3636 12.8125 28.4952V18.924C12.8125 18.0876 13.0298 17.8488 13.9123 17.8947C14.4807 17.9228 14.5403 17.6993 14.5456 17.2371C14.5497 16.9124 14.5405 16.587 14.5314 16.2614C14.5078 15.419 14.4842 14.5754 14.6887 13.7419C15.4161 10.7766 18.4385 8.66446 21.531 8.96584C24.8077 9.28382 27.3027 11.7944 27.4233 14.9129C27.4564 15.7404 27.463 16.573 27.4551 17.3993C27.4551 17.7338 27.5174 17.8845 27.9215 17.8909C29.0491 17.9062 29.1484 18.0275 29.1484 19.1232V28.4378C29.1484 29.3866 28.9762 29.5526 27.993 29.5526H13.8937Z" fill="white"/>
<path d="M56.3751 25.6876C56.3751 27.166 56.3751 27.1546 54.8345 27.3619C54.2325 27.4343 53.6218 27.3988 53.0329 27.257C51.8894 27.0331 51.0379 26.0975 50.9481 24.9661C50.8086 23.7983 51.4757 22.6804 52.5874 22.2191C53.5966 21.7794 54.641 21.7895 55.7048 22.0031C56.0205 22.0663 56.2491 22.1699 56.0516 22.5451C55.9217 22.7979 56.0659 23.2818 55.4463 23.0645C55.016 22.9183 54.5557 22.8749 54.1045 22.9381C52.8965 23.0986 52.286 23.7556 52.3756 24.8019C52.4575 25.7344 53.2953 26.3586 54.4033 26.3447C54.8982 26.3384 55.1502 26.1968 55.0943 25.6522C55.0619 25.3313 54.98 25.1746 54.6423 25.2239C54.1734 25.2921 54.0812 25.0811 54.0669 24.6566C54.05 24.136 54.363 24.1954 54.6904 24.1991C54.7332 24.1991 54.7774 24.1991 54.8203 24.1991C56.3751 24.1966 56.3751 24.1966 56.3751 25.6876Z" fill="white"/>
<path d="M79.2414 21.8599C79.5081 21.8664 79.7743 21.8856 80.0389 21.9174C80.8192 22.0424 80.855 22.1387 80.5892 22.8475C80.4922 23.1063 80.4084 23.1588 80.1253 23.0563C79.6954 22.8792 79.216 22.8379 78.759 22.9387C78.5423 22.9938 78.3243 23.0938 78.2911 23.3313C78.2579 23.5688 78.4426 23.7151 78.6553 23.7988C79.082 23.9663 79.5232 24.1051 79.9472 24.2776C80.6371 24.5576 81.0571 25.0339 81.0385 25.7689C81.0199 26.469 80.5307 27.019 79.7292 27.2478C78.9278 27.4766 78.1595 27.4203 77.37 27.2415C76.9128 27.1365 76.7892 26.9465 76.93 26.499C77.063 26.094 77.1746 25.9477 77.6305 26.1477C78.1008 26.3444 78.6273 26.3884 79.1271 26.2727C79.3823 26.219 79.579 26.0927 79.6056 25.8227C79.6251 25.6054 79.4831 25.4041 79.2627 25.3364C78.961 25.2114 78.6447 25.1151 78.3323 25.0114C77.2424 24.6451 76.7719 24.0688 76.9048 23.2613C77.0377 22.4537 77.798 21.9199 78.8454 21.8762C78.9783 21.8762 79.1112 21.8762 79.2441 21.8762L79.2414 21.8599Z" fill="white"/>
<path d="M90.7976 23.7107C91.4439 23.1075 92.113 22.9551 92.8422 23.207C93.5956 23.474 93.7909 24.1074 93.8244 24.7836C93.8578 25.4309 93.8244 26.0819 93.8511 26.7292C93.8685 27.1989 93.5166 27.0743 93.257 27.0793C92.9975 27.0843 92.6562 27.175 92.6777 26.7141C92.7044 26.1298 92.6937 25.5417 92.6777 24.9511C92.6629 24.3063 92.3512 23.9437 91.8413 23.9349C91.3315 23.926 90.9167 24.3454 90.9047 24.9423C90.8926 25.4863 90.8686 26.0328 90.9047 26.5794C90.9395 27.0264 90.7334 27.102 90.3253 27.0831C89.9613 27.0705 89.6951 27.0831 89.7191 26.5995C89.7646 25.6588 89.7191 24.7106 89.7446 23.7737C89.7446 23.576 89.5171 23.2208 89.972 23.1793C90.3427 23.1629 90.7789 23.0685 90.7976 23.7107Z" fill="white"/>
<path d="M59.5939 30.6781C59.017 30.7231 58.5788 30.7205 58.121 30.4932C57.5229 30.1893 56.8005 30.2477 56.261 30.6434C55.6789 31.0377 55.671 31.6593 56.2139 32.0934C56.9385 32.6739 58.1393 32.5237 58.7345 31.6966C58.2727 31.6966 57.8712 31.6966 57.4696 31.6966C57.2826 31.6966 57.0942 31.6465 57.0994 31.4281C57.1047 31.2098 57.2969 31.1713 57.4827 31.1713C58.1799 31.1713 58.8771 31.1803 59.5756 31.1713C59.9143 31.1636 59.9248 31.3601 59.879 31.5874C59.7933 31.9714 59.5302 32.2943 59.1674 32.4607C57.9653 33.0836 56.7358 33.1029 55.5415 32.4736C54.5121 31.9329 54.5265 30.8887 55.5311 30.3082C56.8331 29.5955 58.4475 29.7425 59.5939 30.6781Z" fill="white"/>
<path d="M62.2726 31.591C62.6219 31.0565 62.9286 30.5923 63.2274 30.1228C63.3258 29.9693 63.4202 29.8341 63.6298 29.8705C63.8161 29.9043 63.8472 30.0669 63.8886 30.206C64.1189 30.9239 64.3543 31.6365 64.5523 32.3674C64.5937 32.5182 64.8951 32.8069 64.5083 32.872C64.2392 32.9175 63.8368 33.0813 63.6932 32.6119C63.5742 32.2217 63.4681 31.8381 63.3465 31.4128C63.0127 31.7015 62.8898 32.0813 62.6698 32.3921C62.402 32.7705 62.1355 32.79 61.8754 32.3999C61.6632 32.0839 61.4731 31.7497 61.2221 31.3491C61.081 31.8069 60.9542 32.171 60.8611 32.5429C60.799 32.7926 60.68 32.8863 60.4173 32.8993C59.9671 32.9188 59.7795 32.8394 59.9761 32.3271C60.2349 31.6456 60.4303 30.9356 60.6463 30.2359C60.6968 30.0721 60.7045 29.8822 60.931 29.8614C61.1367 29.8432 61.235 29.9914 61.3307 30.1358C61.6348 30.6092 61.9362 31.0734 62.2726 31.591Z" fill="white"/>
<path d="M75.901 24.4304C75.901 25.2845 75.877 26.1398 75.9115 26.9926C75.9295 27.4402 75.6192 27.4041 75.2879 27.3926C74.9881 27.3836 74.6283 27.4865 74.6328 27.0208C74.6508 25.3334 74.6538 23.6471 74.6328 21.9609C74.6328 21.4465 75.0091 21.5828 75.3314 21.5584C75.7136 21.5288 75.931 21.5957 75.913 21.997C75.8785 22.8073 75.901 23.6201 75.901 24.4304Z" fill="white"/>
<path d="M58.2852 24.4972C58.2852 25.3097 58.2588 26.1247 58.2956 26.9398C58.3163 27.4065 58.1035 27.3885 57.8101 27.3975C57.4915 27.4065 57.3304 27.3563 57.3362 26.9218C57.3599 25.2745 57.3599 23.6269 57.3362 21.9787C57.3293 21.4787 57.595 21.5802 57.8538 21.5571C58.1529 21.5314 58.3048 21.5982 58.2921 21.9967C58.2657 22.8272 58.2852 23.6629 58.2852 24.4972Z" fill="white"/>
<path d="M83.2628 25.4366C83.2628 25.9271 83.2195 26.4226 83.2748 26.9092C83.3331 27.415 82.9952 27.3765 82.5989 27.3958C82.1503 27.4176 81.9933 27.3059 82.0008 26.9002C82.0352 25.8731 82.0382 24.8461 82.0008 23.8254C81.9828 23.3311 82.3327 23.4172 82.6752 23.4018C83.0505 23.3838 83.2927 23.4249 83.2643 23.8344C83.2389 24.3646 83.2628 24.9 83.2628 25.4366Z" fill="white"/>
<path d="M83.2814 22.1309C83.2617 22.5249 83.0506 22.7586 82.6822 22.7813C82.2889 22.804 82.0109 22.5997 82.0004 22.1669C81.9899 21.7662 82.2561 21.5619 82.6153 21.5525C82.9746 21.5432 83.2158 21.7435 83.2814 22.1309Z" fill="white"/>
<path d="M53.4655 32.1061C53.7906 31.9015 53.5402 31.284 54.0187 31.4403C54.3046 31.5333 53.9702 31.9238 53.9204 32.1842C53.8597 32.4455 53.7754 32.7014 53.6687 32.9491C53.5835 33.1686 53.3868 33.3137 53.1613 33.2108C52.8584 33.0706 53.1351 32.9715 53.215 32.8214C53.3776 32.5152 53.0629 32.2462 53.0236 31.9536C53 31.7738 52.684 31.5432 52.9725 31.4279C53.3121 31.2915 53.2871 31.6622 53.3802 31.8444C53.4144 31.9299 53.4428 32.0173 53.4655 32.1061Z" fill="white"/>
<path fill-rule="evenodd" clip-rule="evenodd" d="M88.0604 23.1777C88.1148 23.1876 88.1675 23.1971 88.2164 23.2032C88.4482 23.233 88.4156 23.3909 88.3852 23.5381C88.3747 23.589 88.3645 23.6386 88.3655 23.6812C88.3659 23.9526 88.3687 24.2237 88.3715 24.4946C88.3799 25.3059 88.3882 26.1146 88.3303 26.9197C88.2313 28.3317 87.541 28.8991 86.0613 28.9354C85.6547 28.9456 85.2485 28.902 84.8543 28.8058C84.4827 28.7165 84.2901 28.5895 84.4257 28.1322C84.545 27.7454 84.7176 27.8175 84.9061 27.8961C84.9619 27.9194 85.0191 27.9433 85.0767 27.9561C85.3356 28.0255 85.6008 28.071 85.8688 28.0921C86.8222 28.1193 87.2507 27.6646 87.187 26.7306C86.0044 27.4016 84.9913 27.2967 84.3132 26.4339C83.6825 25.6282 83.8331 24.3043 84.6319 23.5996C85.2937 23.0166 86.1942 22.9272 87.008 23.369C87.0388 23.3871 87.0677 23.4111 87.0956 23.4344C87.1977 23.5197 87.287 23.5943 87.4148 23.3236C87.5294 23.0815 87.8126 23.1328 88.0604 23.1777ZM85.063 25.189C85.0739 25.8342 85.5581 26.3562 86.1589 26.3756C86.8207 26.3977 87.2059 25.9546 87.2059 25.1592C87.2099 24.3224 86.8831 23.9169 86.205 23.9169C85.5486 23.9156 85.0468 24.4753 85.063 25.189Z" fill="white"/>
<path fill-rule="evenodd" clip-rule="evenodd" d="M67.4214 23.2963C67.977 23.3145 68.4919 23.5808 68.8136 24.0164C69.4013 24.8225 69.2817 26.197 68.5573 26.8679C67.7974 27.5767 66.7418 27.5805 65.7426 26.8477C65.752 27.3702 65.412 27.333 65.099 27.2989C65.06 27.2946 65.0215 27.2904 64.9841 27.2873C64.6348 27.2592 64.6896 27.0647 64.741 26.8821C64.7589 26.8187 64.7764 26.7567 64.7764 26.7037C64.7702 26.0475 64.7719 25.391 64.7737 24.7344C64.7761 23.8589 64.7785 22.9832 64.7619 22.1075C64.7527 21.6539 64.9065 21.5642 65.3496 21.5528C65.8426 21.5389 65.8649 21.7626 65.8518 22.1176C65.8423 22.4754 65.8452 22.8338 65.8484 23.2135C65.8501 23.4116 65.8518 23.6155 65.8518 23.8282C66.3461 23.4782 66.843 23.2521 67.4214 23.2963ZM65.8516 25.3417C65.8424 26.0947 66.2644 26.5647 66.9454 26.5583C67.6171 26.5508 68.0668 26.0606 68.0655 25.3366C68.0641 24.6127 67.6198 24.1187 66.948 24.1175C66.2762 24.1162 65.8608 24.5887 65.8516 25.3417Z" fill="white"/>
<path fill-rule="evenodd" clip-rule="evenodd" d="M59.5782 25.2989C59.5782 23.9674 60.4368 23.115 61.8099 23.0912C63.1476 23.0673 64.0665 23.9105 64.0626 25.1864C64.0704 26.4927 63.1686 27.3795 61.8243 27.3981C60.4801 27.4166 59.5782 26.5748 59.5782 25.2989ZM60.6757 25.2195C60.6586 25.9739 61.1601 26.6039 61.7915 26.6039C62.461 26.6039 62.906 26.0758 62.906 25.2473C62.906 24.4187 62.4649 23.8867 61.7915 23.9052C61.1548 23.9211 60.6927 24.4651 60.6757 25.2195Z" fill="white"/>
<path fill-rule="evenodd" clip-rule="evenodd" d="M73.6329 26.1116C73.6365 26.3027 73.6401 26.494 73.6294 26.6847C73.6262 26.7422 73.6382 26.8087 73.6503 26.8756C73.6799 27.0402 73.71 27.2074 73.5176 27.2488C73.4849 27.2559 73.4505 27.2642 73.4151 27.2727C73.158 27.3348 72.8437 27.4108 72.6615 27.1257C72.531 26.9231 72.4663 26.9602 72.321 27.0727C72.2136 27.1519 72.0953 27.2157 71.9697 27.262C71.1095 27.601 70.1565 27.2832 69.9088 26.5815C69.6261 25.7791 70.104 25.0217 71.0866 24.7569C71.2631 24.7084 71.4466 24.6858 71.6305 24.6631C71.758 24.6474 71.8857 24.6317 72.0114 24.6073C72.0542 24.5992 72.1041 24.6024 72.1546 24.6056C72.2867 24.6141 72.4228 24.6227 72.4462 24.4312C72.4731 24.21 72.3062 24.0657 72.1191 23.973C71.7045 23.7678 71.2778 23.8724 70.8739 23.9863C70.827 23.9995 70.7808 24.0163 70.7359 24.0326C70.5199 24.1112 70.3325 24.1793 70.2144 23.789C70.0996 23.4097 70.3141 23.3562 70.5279 23.3029C70.5798 23.2899 70.6317 23.277 70.6788 23.2594C71.0383 23.1324 71.4198 23.0762 71.8014 23.0939C73.0182 23.1164 73.6065 23.7003 73.6294 24.8986V25.8254C73.6294 25.9207 73.6311 26.0161 73.6329 26.1116ZM72.2338 26.3572C72.4252 26.1866 72.5398 25.9481 72.5523 25.6944H72.551C72.5725 25.4322 72.5106 25.2905 72.1835 25.3051C71.4795 25.3369 70.9397 25.6507 70.972 26.0744C70.9742 26.2179 71.0345 26.3546 71.1397 26.4541C71.2449 26.5536 71.3861 26.6076 71.532 26.604C71.79 26.6166 72.0424 26.5278 72.2338 26.3572Z" fill="white"/>
<path fill-rule="evenodd" clip-rule="evenodd" d="M65.5403 30.4675C66.5463 29.6689 68.5584 29.6573 69.5827 30.4338C70.3561 31.024 70.3366 31.8574 69.5252 32.3997C68.9255 32.7957 68.2565 32.9368 67.4883 32.9368C66.8429 32.9135 66.17 32.7789 65.5873 32.3583C64.8517 31.8264 64.836 31.0266 65.5403 30.4675ZM66.059 31.3739C66.0407 31.9421 66.694 32.4339 67.5145 32.4675C68.3455 32.5012 69.1398 31.9602 69.1229 31.3843C69.1059 30.8083 68.3807 30.3165 67.555 30.3243C66.7502 30.3385 66.0773 30.8057 66.059 31.3739Z" fill="white"/>
<path fill-rule="evenodd" clip-rule="evenodd" d="M51.9365 30.9845C51.8984 31.3326 52.0363 31.345 52.3012 31.3573C52.7467 31.3779 52.8774 31.8028 52.8477 32.229C52.818 32.6553 52.6172 32.8869 52.1978 32.9294C51.527 32.9972 51.5544 32.589 51.5808 32.1956C51.5886 32.0798 51.5963 31.9652 51.586 31.8644V31.0119C51.5872 30.8885 51.6407 30.783 51.7476 30.783C51.8545 30.783 51.9507 30.8474 51.9365 30.9845ZM51.9354 32.1578C51.9401 32.3552 52.0007 32.5128 52.1932 32.5251H52.1991C52.4367 32.5416 52.4735 32.3373 52.4795 32.1263C52.4916 32.0278 52.4688 31.9278 52.4163 31.8489C52.3638 31.7699 52.2859 31.7188 52.2003 31.7068C51.9734 31.7589 51.9306 31.9604 51.9354 32.1578Z" fill="white"/>
<path d="M51.8591 14.3651C51.8969 15.0282 52.0563 15.5664 52.3372 15.9796C52.872 16.7541 53.8173 17.1409 55.1732 17.1401C55.7363 17.1471 56.2962 17.0607 56.8276 16.885C57.7892 16.5569 58.2704 15.969 58.2713 15.1213C58.2713 14.4854 58.0674 14.0322 57.6595 13.7619C57.2517 13.4915 56.6043 13.2607 55.7175 13.0694L54.0969 12.7123C53.0372 12.4794 52.2868 12.2243 51.8456 11.9472C51.0839 11.46 50.7031 10.7314 50.7031 9.76136C50.7031 8.71139 51.0776 7.85015 51.8267 7.17766C52.5758 6.50516 53.635 6.16849 55.0044 6.16764C56.2649 6.16764 57.3368 6.4652 58.22 7.06033C59.1032 7.65546 59.5444 8.60001 59.5435 9.89399H57.962C57.881 9.26315 57.7091 8.7777 57.4462 8.43763C56.9564 7.82805 56.1249 7.52326 54.9518 7.52326C54.0055 7.52326 53.3249 7.71965 52.9098 8.11243C52.5119 8.46772 52.2871 8.96242 52.2886 9.47952C52.2886 10.0525 52.533 10.4713 53.0219 10.7357C53.3433 10.9057 54.0694 11.1183 55.2003 11.3733L56.8803 11.7533C57.6906 11.9344 58.3159 12.181 58.7562 12.493C59.5178 13.0388 59.8987 13.8312 59.8987 14.8701C59.8987 16.1632 59.4129 17.0882 58.4415 17.6451C57.47 18.202 56.3428 18.4787 55.0598 18.4753C53.5607 18.4753 52.3867 18.1042 51.5377 17.362C50.6887 16.6198 50.2727 15.6208 50.2898 14.3651H51.8591Z" fill="white"/>
<path fill-rule="evenodd" clip-rule="evenodd" d="M68.787 11.0602C68.4521 10.5892 67.9916 10.2126 67.4533 9.96938C66.8922 9.69423 66.2706 9.55123 65.6402 9.55226C64.4068 9.54889 63.4084 9.97022 62.6452 10.8163C61.8819 11.6623 61.5002 12.7628 61.5002 14.1178C61.5002 15.4931 61.8792 16.5633 62.6372 17.3284C63.3473 18.0732 64.3571 18.4907 65.4104 18.4749C65.8148 18.4797 66.2184 18.4372 66.6121 18.3485C67.2373 18.2192 67.812 17.9245 68.2707 17.4978C68.5623 17.2249 68.8069 16.9097 68.9957 16.5637C69.1902 16.2448 69.3202 15.8935 69.3786 15.5285H67.926C67.8253 15.8932 67.6392 16.2312 67.382 16.5169C66.9251 17.0082 66.3128 17.2538 65.5451 17.2538C64.7211 17.253 64.1136 16.9935 63.7227 16.4752C63.3318 15.957 63.1223 15.2681 63.0941 14.4086H69.5081C69.5081 13.5583 69.464 12.9385 69.376 12.5492C69.2926 12.0184 69.0918 11.5108 68.787 11.0602ZM67.5733 11.8084C67.815 12.2672 67.954 12.7692 67.9814 13.2823H63.1323C63.1344 12.6194 63.3931 11.9808 63.8586 11.4899C64.2909 11.03 64.9107 10.7726 65.5569 10.7846C66.4988 10.7846 67.171 11.1259 67.5733 11.8084Z" fill="white"/>
<path d="M77.3328 10.2417C77.9672 10.704 78.3485 11.4994 78.4767 12.6279H77.0048C76.9349 12.1501 76.7224 11.7007 76.3918 11.3318C76.0728 10.9882 75.5616 10.8164 74.8581 10.8164C73.8965 10.8164 73.2096 11.2569 72.7974 12.1377C72.5286 12.7104 72.3942 13.4157 72.3942 14.2536C72.3942 15.0916 72.5841 15.8019 72.9641 16.3847C73.345 16.9624 73.9427 17.2508 74.7573 17.25C75.3846 17.25 75.8806 17.071 76.2453 16.7131C76.61 16.3552 76.8627 15.8651 77.0034 15.2427H78.47C78.3024 16.3611 77.8834 17.1784 77.2131 17.6946C76.5428 18.2109 75.6866 18.4711 74.6444 18.4753C73.4704 18.4753 72.5349 18.0723 71.8377 17.2664C71.1405 16.4605 70.791 15.4541 70.7892 14.2473C70.7892 12.7668 71.1718 11.6143 71.9371 10.7899C72.6627 9.98288 73.7382 9.52816 74.8621 9.5532C75.8712 9.54983 76.6947 9.77932 77.3328 10.2417Z" fill="white"/>
<path d="M81.285 9.55222V15.3215C81.2708 15.6946 81.3427 16.0661 81.4953 16.4084C81.7536 16.9291 82.236 17.1894 82.9425 17.1894C83.9561 17.1894 84.6458 16.7347 85.0114 15.8252C85.2111 15.3384 85.311 14.6706 85.311 13.8219V9.55222H86.8048V18.2386H85.3935L85.4095 16.9564C85.2293 17.2761 84.989 17.5596 84.7012 17.7921C84.1285 18.2512 83.4059 18.4934 82.6656 18.4742C81.423 18.4742 80.5758 18.0603 80.124 17.2324C79.8799 16.7881 79.7579 16.1958 79.7579 15.4555V9.55222H81.285Z" fill="white"/>
<path d="M89.3675 9.74164H90.8397V11.1975C90.9594 10.9147 91.255 10.5695 91.7264 10.1621C92.1587 9.76956 92.744 9.55017 93.3533 9.55223C93.3823 9.55223 93.4306 9.55223 93.4997 9.55981L93.8518 9.59138V11.0877C93.7684 11.0724 93.684 11.0619 93.5991 11.0561C93.5218 11.0561 93.4361 11.0485 93.345 11.0485C92.5633 11.0485 91.9648 11.2779 91.5496 11.7367C91.137 12.1784 90.9138 12.7419 90.9212 13.3226V18.1676H89.3675V9.74164Z" fill="white"/>
<path fill-rule="evenodd" clip-rule="evenodd" d="M101.78 11.0602C101.445 10.5895 100.984 10.2129 100.446 9.96938C99.885 9.69462 99.264 9.55163 98.6342 9.55226C97.4002 9.54889 96.4013 9.97022 95.6377 10.8163C94.874 11.6623 94.4922 12.7628 94.4922 14.1178C94.4922 15.4931 94.8714 16.5633 95.6297 17.3284C96.3402 18.0732 97.3505 18.4907 98.4043 18.4749C98.8085 18.4797 99.2118 18.4372 99.6052 18.3485C100.231 18.2195 100.806 17.9247 101.265 17.4978C101.556 17.2247 101.802 16.9095 101.991 16.5637C102.186 16.2447 102.315 15.8935 102.373 15.5285H100.92C100.818 15.893 100.632 16.2308 100.376 16.5169C99.9184 17.0082 99.3053 17.2538 98.5364 17.2538C97.7137 17.253 97.106 16.9935 96.7131 16.4752C96.3203 15.957 96.1107 15.2681 96.0842 14.4086H102.5C102.5 13.5583 102.456 12.9385 102.368 12.5492C102.284 12.0187 102.084 11.5112 101.78 11.0602ZM100.556 11.8084C100.801 12.2667 100.943 12.7686 100.974 13.2823H96.1145C96.1159 12.6193 96.3749 11.9804 96.8412 11.4899C97.2737 11.03 97.8937 10.7726 98.5402 10.7846C99.4818 10.7846 100.154 11.1259 100.556 11.8084Z" fill="white"/>
<path fill-rule="evenodd" clip-rule="evenodd" d="M39.901 3.39945L40.1015 3.47398L40.1994 3.5126V9.38593C40.1994 9.76454 40.1197 10.141 39.9587 10.5182C39.7906 10.9119 39.584 11.2585 39.3393 11.5592C39.086 11.8705 38.782 12.1754 38.427 12.4738C38.0634 12.7793 37.73 13.0314 37.4276 13.2299C37.1202 13.4317 36.7992 13.6226 36.4647 13.8026L36.1535 13.968C36.0431 14.0258 35.949 14.0738 35.8726 14.1114L35.7545 14.1678L35.5055 14.2783L35.4017 14.3217L35.393 14.3226L35.3553 14.3085L35.2444 14.2614C35.215 14.2486 35.1827 14.2343 35.1477 14.2187L35.0349 14.1678L34.6252 13.9625L34.3247 13.8026L34.1256 13.6933C33.8623 13.5458 33.6077 13.3914 33.3618 13.2299C33.0594 13.0314 32.7259 12.7793 32.3624 12.4738C32.0074 12.1754 31.7034 11.8705 31.4501 11.5592C31.2054 11.2585 30.9988 10.9119 30.8307 10.5182C30.6697 10.141 30.59 9.76454 30.59 9.38593V3.51354L30.6808 3.47831C30.7475 3.45309 30.8269 3.42419 30.9161 3.39274L31.2111 3.29141C31.5272 3.1854 31.8851 3.07278 32.2504 2.96546L32.574 2.87234C33.7856 2.53107 34.8249 2.32264 35.4499 2.32264C36.0327 2.32264 36.9895 2.51387 38.1109 2.82993L38.3946 2.91151C38.6934 2.99911 38.9913 3.09177 39.2687 3.18264L39.5905 3.29038L39.7418 3.34277C39.7978 3.36241 39.851 3.38138 39.901 3.39945ZM32.8446 5.94068C33.084 5.94068 33.2828 6.03227 33.4411 6.21545L33.8427 5.71268C33.7251 5.58017 33.58 5.47981 33.4076 5.4116C33.2351 5.3434 33.0394 5.3093 32.8203 5.3093C32.6702 5.3093 32.5221 5.33365 32.376 5.38237C32.23 5.43109 32.0991 5.50612 31.9835 5.60745C31.8678 5.70878 31.7745 5.83642 31.7035 5.99037C31.6325 6.14432 31.597 6.32847 31.597 6.54283C31.597 6.71432 31.6203 6.86145 31.667 6.98422C31.7137 7.10699 31.7766 7.21417 31.8557 7.30576C31.9348 7.39735 32.0261 7.47627 32.1295 7.54253C32.233 7.60878 32.3436 7.66919 32.4612 7.72376L32.5518 7.76923C32.6983 7.84609 32.8223 7.92837 32.9238 8.01606C33.0455 8.1213 33.1063 8.26355 33.1063 8.44283C33.1063 8.62601 33.0556 8.76827 32.9542 8.8696C32.8527 8.97094 32.7249 9.0216 32.5708 9.0216C32.4328 9.0216 32.2979 8.99042 32.1661 8.92806C32.0342 8.86571 31.9216 8.77996 31.8283 8.67083L31.4327 9.1853C31.5544 9.32171 31.7167 9.43473 31.9196 9.52437C32.1224 9.61401 32.3436 9.65883 32.5829 9.65883C32.7493 9.65883 32.9075 9.63155 33.0576 9.57699C33.2078 9.52242 33.3386 9.44155 33.4502 9.33437C33.5618 9.22719 33.651 9.09565 33.718 8.93976C33.7849 8.78386 33.8184 8.60458 33.8184 8.40191C33.8184 8.22652 33.79 8.07453 33.7332 7.94591C33.6764 7.81729 33.6033 7.70622 33.5141 7.61268C33.4248 7.51914 33.3254 7.43924 33.2159 7.37299C33.1063 7.30673 32.9988 7.24827 32.8933 7.1976L32.8069 7.15432C32.6677 7.08152 32.5525 7.00533 32.4612 6.92576C32.3517 6.83027 32.2969 6.69483 32.2969 6.51945C32.2969 6.41812 32.3121 6.33042 32.3425 6.25637C32.373 6.18232 32.4146 6.12191 32.4673 6.07514C32.5201 6.02837 32.5789 5.99427 32.6438 5.97283C32.7087 5.9514 32.7757 5.94068 32.8446 5.94068ZM35.6786 5.9407C35.918 5.9407 36.1168 6.03229 36.2751 6.21547L36.6767 5.7127C36.5591 5.58019 36.414 5.47983 36.2416 5.41162C36.0692 5.34342 35.8734 5.30931 35.6543 5.30931C35.5042 5.30931 35.3561 5.33367 35.21 5.38239C35.064 5.43111 34.9331 5.50613 34.8175 5.60747C34.7019 5.7088 34.6085 5.83644 34.5375 5.99039C34.4665 6.14434 34.431 6.32849 34.431 6.54285C34.431 6.71434 34.4544 6.86147 34.501 6.98424C34.5477 7.10701 34.6106 7.21419 34.6897 7.30578C34.7688 7.39737 34.8601 7.47629 34.9636 7.54254C35.067 7.6088 35.1776 7.66921 35.2952 7.72378L35.3858 7.76925C35.5324 7.84611 35.6563 7.92839 35.7578 8.01608C35.8795 8.12132 35.9403 8.26357 35.9403 8.44285C35.9403 8.62603 35.8896 8.76829 35.7882 8.86962C35.6868 8.97096 35.559 9.02162 35.4048 9.02162C35.2668 9.02162 35.1319 8.99044 35.0001 8.92808C34.8682 8.86572 34.7556 8.77998 34.6623 8.67085L34.2667 9.18531C34.3884 9.32172 34.5507 9.43475 34.7536 9.52439C34.9565 9.61403 35.1776 9.65885 35.417 9.65885C35.5833 9.65885 35.7415 9.63157 35.8917 9.57701C36.0418 9.52244 36.1726 9.44157 36.2842 9.33439C36.3958 9.22721 36.485 9.09567 36.552 8.93978C36.6189 8.78388 36.6524 8.6046 36.6524 8.40193C36.6524 8.22654 36.624 8.07455 36.5672 7.94593C36.5104 7.81731 36.4374 7.70624 36.3481 7.6127C36.2588 7.51916 36.1594 7.43926 36.0499 7.37301C35.9403 7.30675 35.8328 7.24829 35.7273 7.19762L35.6409 7.15434C35.5018 7.08154 35.3865 7.00535 35.2952 6.92578C35.1857 6.83029 35.1309 6.69485 35.1309 6.51947C35.1309 6.41813 35.1461 6.33044 35.1766 6.25639C35.207 6.18234 35.2486 6.12193 35.3013 6.07516C35.3541 6.02839 35.4129 5.99429 35.4778 5.97285C35.5427 5.95142 35.6097 5.9407 35.6786 5.9407ZM37.417 9.55344V5.41437H38.1534V8.90452H39.3401V9.55344H37.417Z" fill="white"/>
</svg>
