<svg width="80" height="80" viewBox="0 0 80 80" fill="none" xmlns="http://www.w3.org/2000/svg">
<path fill-rule="evenodd" clip-rule="evenodd" d="M21.2043 5.67251C18.6398 8.35778 17.7973 8.93104 14.783 10.0423C9.65164 11.9342 6.9395 16.9529 8.65114 21.3892C9.34899 23.198 10.4608 23.1155 10.4608 21.2551C10.4608 19.1987 11.44 15.8749 15.0932 15.1146C18.7464 14.3542 21.7595 14.2158 23.505 13.1067C25.2505 11.9976 25.7122 12.2314 26.9288 9.92122C27.8182 8.2325 26.4752 7.22218 26.4752 5.63316C26.4752 4.90681 26.384 4.74096 26.0539 4.86772C25.8221 4.95648 25.6937 4.93042 25.7686 4.80937C26.1854 4.13339 24.7628 3.86825 24.2823 4.37969C23.6463 5.05691 23.1689 5.07021 23.7291 4.39516C23.978 4.09523 23.9476 3.97526 23.5863 3.83656C23.2506 3.7079 22.607 4.2038 21.2043 5.67251ZM40.2261 7.06107C33.2382 8.32947 28.8931 12.101 26.9288 18.6034C24.3838 27.0278 24.2077 27.2702 19.8232 28.4004C15.729 29.4562 11.244 26.5626 7.95802 29.6051C5.06963 32.2791 3.89354 37.9438 3.41639 41.7411C3.31813 42.5209 3.75193 42.7763 3.91072 42.5415C4.07113 42.304 4.30229 43.0079 4.33106 44.5969C4.35848 46.0968 4.19833 47.3699 4.43094 47.8178L4.81203 48.5528L5.0775 47.8959C5.22353 47.5349 5.56281 46.3233 5.83125 45.2036C6.0997 44.084 6.41402 43.1 6.52964 43.017C6.83734 42.7959 7.08742 40.5583 7.46253 40.5583C7.82514 40.5583 8.47739 38.265 8.63078 37.9472C10.4448 34.1903 10.8085 33.9607 14.4782 34.256C20.8338 34.7679 23.516 34.3912 26.5762 32.5579C30.0038 30.504 31.8593 27.8907 33.1893 23.2427C34.1165 20.0021 34.965 18.3341 36.5464 16.6437C38.6681 14.375 44.5589 13.986 52.52 13.5219C55.9966 13.3191 55.9697 12.3619 52.9608 12.1036C50.8533 11.9226 46.5122 12.3911 44.1828 12.3911C43.992 12.0501 47.3375 11.3753 47.6518 11.3753C48.1648 11.3753 55.1882 10.8391 54.7018 10.5419C54.5064 10.4225 54.191 9.93878 54.0007 9.46731C53.1796 7.43294 45.5356 6.09749 40.2261 7.06107ZM61.8794 19.4735C61.776 19.5769 58.7327 19.742 55.1161 19.8402C48.9256 20.0085 48.437 20.0595 46.7626 20.7153C40.6003 23.1291 37.4905 26.9818 34.9906 35.3001C33.4245 40.5121 30.863 42.0761 23.5954 42.2582C18.8641 42.3768 17.2486 42.7017 14.6863 44.0508C10.4128 46.3004 6.80634 51.9388 6.16983 57.3642C5.89949 59.6689 6.68062 62.31 7.40155 61.1708C7.72483 59.6861 8.04812 60.4644 7.95802 61.3439C7.96779 62.2811 8.50115 61.0833 8.87491 59.284C9.30404 57.2184 9.96445 55.7261 11.3208 53.7574C11.4767 53.5311 12.0763 52.1232 12.2588 52.236C12.5167 52.3954 13.8421 51.1175 13.73 50.8175C13.6363 50.5676 15.4369 49.9465 15.6262 49.8529C17.4652 48.9436 19.2946 48.8225 22.2934 49.4118C24.5484 49.8548 26.5829 49.5883 27.9197 48.7089C28.2929 48.4632 25.8776 48.6535 25.6189 48.3388C25.3594 47.9295 26.9835 47.2685 29.3104 47.6019C29.6415 47.7072 30.695 48.1871 32.1368 47.6019C33.5786 47.0166 34.0882 46.3019 33.8271 46.3833C33.1461 46.5958 33.4282 45.6578 34.2868 45.0992C34.9363 44.6766 35.464 45.0358 35.1399 45.4313C34.9187 45.7011 34.885 45.8859 35.0566 45.8859C35.4246 45.8859 36.9207 44.479 36.6434 43.961C36.5726 43.8465 35.9524 43.553 36.461 43.2387C37.0234 42.8911 37.3694 43.3575 37.2125 43.6181C37.0168 43.943 37.7281 42.9019 38.206 42.2582C38.8622 41.3744 38.2175 40.9612 37.7281 41.2633C37.5324 41.3844 37.2502 41.1268 37.9557 40.0345C38.7522 39.0331 39.2301 39.3517 39.3522 39.4272C39.9612 39.8036 39.8421 38.0185 40.2876 37.1442C41.1024 35.5437 41.2938 33.3754 41.9205 31.6578C42.6393 29.6896 44.1362 28.0122 46.0851 26.9919C46.891 26.5698 47.5098 26.1597 47.4607 26.0801C47.3179 25.8494 48.2313 25.7873 53.5864 25.6643C58.5601 25.5503 59.6052 25.4926 59.2363 24.8957C58.5551 24.2365 59.2363 24.2255 60.2969 24.5623C61.0569 24.8036 63.7504 22.4506 63.9287 21.3893C63.9979 20.9786 63.948 20.6428 63.818 20.6428C63.4505 20.6428 63.0848 20.7527 63.2261 20.1792C63.3298 19.379 63.5609 19.2857 62.8364 19.2857C62.4133 19.2857 61.9828 19.3704 61.8794 19.4735ZM4.81032 40.9284C4.81032 40.9284 4.23681 41.5109 4.21482 40.9284C4.20035 40.5429 4.59113 38.6346 5.20732 36.8923C5.79287 35.2366 7.01757 33.6755 7.10411 33.9589C7.238 34.3973 4.81032 40.9284 4.81032 40.9284ZM56.6669 32.1459C49.2829 34.2015 46.7553 37.2513 43.7763 47.6992C42.3709 52.6289 38.8914 57.4075 36.3617 57.8822C34.4315 58.2443 31.1008 57.7994 29.3772 56.9496C25.6038 55.0889 24.938 54.9312 24.1557 55.7135C23.8522 56.0169 23.6788 56.0565 23.6061 55.8386C23.4668 55.4203 21.3013 56.6564 19.996 57.8993C17.3091 60.4578 16.7638 65.2203 19.0748 65.9472C19.5522 66.0973 19.6239 65.9809 19.6787 64.9687C19.7732 63.2185 20.4846 61.6502 21.6688 60.5802C23.0569 59.3259 23.4845 59.3593 25.2265 60.8571C28.6142 63.7693 34.0697 64.9334 37.9381 63.5692C40.9114 62.5209 44.9563 59.2869 44.9563 57.8815C44.9563 56.766 45.4451 56.3557 46.5946 56.3557C46.7276 56.3557 46.9133 56.0503 47.0069 55.6771C46.5946 55.1868 46.8238 54.8735 47.438 54.9985C47.8804 54.9985 48.731 53.0342 49.7459 49.669C51.061 45.3084 51.678 43.6964 52.6155 42.1693C53.0522 41.4579 53.4143 40.7861 53.42 40.6765C53.4387 40.3146 55.5209 39.024 56.6145 38.6964C57.5178 38.4255 58.1342 38.4659 60.5025 38.951C64.3394 39.7365 65.864 39.7145 66.8594 38.8592C67.2869 38.492 67.5513 38.1063 67.447 38.0021C66.9521 37.5722 67.3935 37.6487 67.5597 37.4483C67.77 37.1948 67.7733 37.0841 67.57 37.0841C65.9729 37.0841 67.2799 36.4256 67.2938 36.0895C67.3413 34.9582 67.2568 35.2071 65.692 34.1697C62.7659 32.2303 59.2202 31.4351 56.6669 32.1459ZM61.2837 33.4391C61.309 33.7463 54.4009 35.3451 54.0188 34.5006C53.6368 33.6562 55.9578 32.8707 57.0428 32.7879C58.1279 32.7052 61.2585 33.1319 61.2837 33.4391ZM52.7351 35.1588C52.7949 35.2963 51.0989 37.2626 49.6964 38.951C48.2939 40.6394 46.3891 43.4127 46.2402 43.3234C45.8915 43.1141 47.8765 39.4164 49.1788 37.7969C50.4811 36.1773 52.6309 34.919 52.7351 35.1588ZM3.29214 44.9922C3.37497 45.6963 3.67733 47.1354 3.82019 47.1354C4.05527 47.1354 3.93414 45.6536 3.91072 44.7591C3.88415 43.7445 3.71822 43.0974 3.50957 43.0974C3.14719 43.0974 3.20931 44.2881 3.29214 44.9922ZM14.0719 15.8637C11.5434 16.853 11.2913 18.9983 11.5558 19.5943C11.6063 19.7082 12.8299 17.9146 14.8453 17.0321C17.1149 16.0382 21.5015 15.2192 21.4052 14.9545C21.3563 14.8203 16.6004 14.8745 14.0719 15.8637ZM51.5057 61.561C51.5903 62.202 51.0704 61.9171 50.7205 61.8257C50.3775 61.7361 49.8324 61.8815 49.5375 62.0979C49.4531 62.0132 49.7027 63.5829 49.3766 63.6537C49.0506 63.7246 48.9124 63.0707 48.7732 63.0707C48.6339 63.0707 48.0442 63.9532 48.0442 64.1215C47.8457 66.3329 44.9466 67.5328 43.9336 68.0173C43.3959 68.2746 42.6261 68.4882 42.2233 68.4923C39.1444 68.5221 35.216 70.9965 33.8863 73.7434C33.1567 75.2504 33.1276 77.0632 33.8271 77.4375C34.3882 77.7377 34.677 77.5763 34.677 76.962C34.677 76.3092 35.988 74.7781 37.2048 74.0102C38.4032 73.2534 38.5253 73.2415 43.3864 73.4016C45.8895 73.4842 46.0651 73.4508 48.0007 72.5257C50.5125 71.3255 52.954 69.0571 53.378 67.5301C53.9605 65.4316 53.5882 61.5192 52.7896 61.8257C52.4966 62.2661 52.32 62.4217 52.32 61.7342C52.32 61.6055 52.1368 61.4299 51.9128 61.3439C51.6726 61.2519 51.5057 61.3406 51.5057 61.561ZM39.0908 58.7205C38.179 59.9225 30.6906 59.0659 30.2209 58.5962C29.7511 58.1264 31.3676 58.4718 34.3243 58.5962C37.2809 58.7205 40.0027 57.5185 39.0908 58.7205Z" fill="#CC0074"/>
<path d="M69.692 74.0284C71.5149 73.6498 79.7437 41.7987 78.4353 40.1867C77.786 39.3866 64.7139 35.1414 51.3931 31.7486C37.8734 28.3051 24.1023 25.7213 23.4556 25.9821C22.1719 26.4998 13.3011 58.6096 14.7123 59.8238C15.4406 60.4504 29.4189 64.9219 43.1791 68.4629C56.0809 71.783 68.8098 74.2115 69.692 74.0284Z" fill="white" stroke="#121417" stroke-width="1.5" stroke-linecap="round" stroke-linejoin="round"/>
<path d="M46.1024 52.5737C42.7418 51.7057 26.7267 31.1282 23.7441 26.022C26.4718 32.1147 44.4239 57.7418 47.7845 58.6097C50.3569 59.2741 69.5442 48.8274 78.0367 43.1401L78.2424 41.1507C78.2424 41.1507 49.463 53.4416 46.1024 52.5737Z" fill="#121417" stroke="#121417" stroke-width="1.5"/>
</svg>
