<svg width="204" height="24" viewBox="0 0 204 24" fill="none" xmlns="http://www.w3.org/2000/svg">
<path d="M119.497 15.2292H112.73V4.81803C112.73 4.59533 112.563 4.42831 112.339 4.42831H108.033C107.809 4.42831 107.641 4.59533 107.641 4.81803V19.1264C107.641 19.3491 107.809 19.5161 108.033 19.5161H119.441C119.665 19.5161 119.833 19.3491 119.833 19.1264V15.5632C119.889 15.3962 119.721 15.2292 119.497 15.2292ZM168.262 10.1628C168.262 11.1092 167.535 11.6103 166.305 11.6103H164.124V8.65957H166.361C167.535 8.65957 168.262 9.16064 168.262 10.1628ZM170.555 14.7838C170.443 14.6167 170.499 14.394 170.667 14.227C172.289 13.3362 173.295 11.833 173.295 9.82874V9.77306C173.295 8.21417 172.792 7.10068 171.897 6.20989C170.835 5.15207 169.101 4.48398 166.417 4.48398H159.482C159.259 4.48398 159.091 4.651 159.091 4.8737V19.1821C159.091 19.4048 159.259 19.5718 159.482 19.5718H163.788C164.012 19.5718 164.18 19.4048 164.18 19.1821V15.2292H165.242L167.983 19.3491C168.038 19.4604 168.15 19.5161 168.318 19.5161H173.183C173.519 19.5161 173.687 19.1821 173.519 18.9037L170.555 14.7838ZM152.716 12.0557C152.716 13.8373 151.485 15.3962 149.584 15.3962C147.627 15.3962 146.396 13.7816 146.396 12V11.9444C146.396 10.1628 147.627 8.6039 149.528 8.6039C151.429 8.6039 152.716 10.2185 152.716 12.0557ZM149.528 4.14993C144.83 4.14993 141.251 7.65743 141.251 12V12.0557C141.251 16.454 144.83 19.9058 149.528 19.9058C154.225 19.9058 157.805 16.3983 157.805 12.0557V12C157.805 7.60175 154.225 4.14993 149.528 4.14993ZM105.964 15.3962H98.3023V15.0065V14.1157V13.726H105.349C105.572 13.726 105.74 13.5589 105.74 13.3362V10.4412C105.74 10.2185 105.572 10.0514 105.349 10.0514H98.3023V8.54822H105.852C106.076 8.54822 106.243 8.3812 106.243 8.1585V4.76235C106.243 4.53965 106.076 4.37263 105.852 4.37263H93.7166C93.4929 4.37263 93.3251 4.53965 93.3251 4.76235V19.0707C93.3251 19.2934 93.4929 19.4604 93.7166 19.4604H105.964C106.187 19.4604 106.355 19.2934 106.355 19.0707V15.6746C106.355 15.5632 106.132 15.3962 105.964 15.3962ZM186.773 15.2292H180.006V4.81803C180.006 4.59533 179.838 4.42831 179.615 4.42831H175.308C175.085 4.42831 174.917 4.59533 174.917 4.81803V19.1264C174.917 19.3491 175.085 19.5161 175.308 19.5161H186.717C186.94 19.5161 187.108 19.3491 187.108 19.1264V15.5632C187.164 15.3962 186.996 15.2292 186.773 15.2292ZM141.419 4.42831H137.001C136.833 4.42831 136.666 4.53965 136.61 4.70668L134.876 10.4968C134.764 10.8309 134.261 10.8865 134.149 10.4968L132.192 4.651C132.136 4.48398 131.968 4.37263 131.856 4.37263H128.053C127.886 4.37263 127.718 4.48398 127.662 4.651L125.705 10.4968C125.593 10.8309 125.089 10.8309 124.978 10.4968L123.244 4.70668C123.188 4.53965 123.02 4.42831 122.853 4.42831H118.379C118.155 4.42831 117.987 4.59533 117.987 4.81803C117.987 4.8737 117.987 4.8737 117.987 4.92937L122.685 19.3491C122.741 19.5161 122.908 19.6275 123.076 19.6275H126.935C127.103 19.6275 127.215 19.5161 127.27 19.3491L129.507 13.1135C129.619 12.7795 130.123 12.7795 130.234 13.1135L132.471 19.3491C132.527 19.5161 132.695 19.6275 132.807 19.6275H136.666C136.833 19.6275 137.001 19.5161 137.057 19.3491L141.755 4.92937C141.81 4.70668 141.699 4.53965 141.531 4.42831C141.475 4.48398 141.419 4.42831 141.419 4.42831ZM43.8891 4.42831H39.583C39.3593 4.42831 39.1916 4.59533 39.1916 4.81803V9.77306H34.5499V4.81803C34.5499 4.59533 34.3822 4.42831 34.1585 4.42831H29.8524C29.6287 4.42831 29.4609 4.59533 29.4609 4.81803V19.1264C29.4609 19.3491 29.6287 19.5161 29.8524 19.5161H34.1585C34.3822 19.5161 34.5499 19.3491 34.5499 19.1264V14.1157H39.1916V19.1264C39.1916 19.3491 39.3593 19.5161 39.583 19.5161H43.8891C44.1128 19.5161 44.2806 19.3491 44.2806 19.1264V4.81803C44.2806 4.59533 44.1128 4.42831 43.8891 4.42831ZM198.125 12C198.125 14.1713 196.615 15.1178 194.322 15.1178H193.483V8.82659H194.322C196.615 8.82659 198.125 9.77306 198.125 12ZM194.21 4.42831H188.786C188.562 4.42831 188.394 4.59533 188.394 4.81803V19.1264C188.394 19.3491 188.562 19.5161 188.786 19.5161H194.043C200.194 19.5161 203.27 16.3427 203.27 11.8887V11.833C203.214 7.37906 200.194 4.42831 194.21 4.42831ZM70.4526 9.77306C68.8308 9.49469 68.4394 9.21631 68.4394 8.82659V8.77092C68.4394 8.3812 68.7749 8.1585 69.5578 8.1585C70.8441 8.1585 72.4658 8.54822 73.808 9.43901C73.9757 9.55036 74.1994 9.49469 74.3113 9.32766L76.3245 6.54394C76.4364 6.37691 76.3804 6.15422 76.2127 5.98719C74.535 4.76235 72.4099 4.14993 69.6697 4.14993C65.4754 4.14993 63.2385 6.37691 63.2385 9.21631V9.27199C63.2385 12.4454 66.2024 13.4476 69.6137 14.1157C71.2355 14.4497 71.7388 14.6724 71.7388 15.1178V15.1735C71.7388 15.5632 71.3474 15.8416 70.4526 15.8416C68.7749 15.8416 66.9854 15.3962 65.4195 14.2827C65.2517 14.1713 65.028 14.227 64.9162 14.3384L62.6793 16.9551C62.5674 17.1221 62.5674 17.3448 62.7352 17.5118C64.6366 19.015 67.265 19.7945 70.2289 19.7945C74.3113 19.7945 76.9397 17.8459 76.9397 14.6724V14.6167C76.9397 11.6103 74.3113 10.4968 70.4526 9.77306ZM91.3119 4.42831H78.1141C77.8904 4.42831 77.7226 4.59533 77.7226 4.81803V8.32552C77.7226 8.54822 77.8904 8.71524 78.1141 8.71524H82.1964V19.1264C82.1964 19.3491 82.3642 19.5161 82.5879 19.5161H86.894C87.1177 19.5161 87.2854 19.3491 87.2854 19.1264V8.71524H91.3678C91.5915 8.71524 91.7593 8.54822 91.7593 8.32552V4.81803C91.7034 4.59533 91.5356 4.42831 91.3119 4.42831ZM57.087 12.0557C57.087 13.8373 55.8567 15.3962 53.9553 15.3962C51.998 15.3962 50.7677 13.7816 50.7677 12V11.9444C50.7677 10.1628 51.998 8.6039 53.8993 8.6039C55.8567 8.6039 57.087 10.2185 57.087 12.0557C57.087 12.0557 57.087 12 57.087 12.0557ZM53.9553 4.14993C49.2577 4.14993 45.6786 7.65743 45.6786 12V12.0557C45.6786 16.454 49.2577 19.9058 53.9553 19.9058C58.6528 19.9058 62.2319 16.3983 62.2319 12.0557V12C62.2319 7.60175 58.6528 4.14993 53.9553 4.14993Z" fill="#F25621"/>
<path d="M24.1072 20.6595C24.1072 22.5096 22.6101 24 20.7518 24H3.35539C1.49702 24 0 22.5096 0 20.6595V3.34047C0 1.49036 1.49702 0 3.35539 0H20.7518C22.6101 0 24.1072 1.49036 24.1072 3.34047V20.6595Z" fill="#F25621"/>
<path d="M19.9516 3.82871H15.125C14.9443 3.82871 14.7894 3.98288 14.7894 4.16275V8.45397H15.3315C15.4089 8.45397 15.4605 8.53106 15.4605 8.60815C15.4605 8.63384 15.4605 8.65954 15.4347 8.68524L12.3632 11.7944C12.26 11.9229 12.26 12.0771 12.3632 12.2056L15.4605 15.3405C15.4863 15.3662 15.4863 15.3919 15.4863 15.4176C15.4863 15.4947 15.4347 15.546 15.3573 15.5717H14.8152V19.863C14.8152 20.0428 14.9701 20.197 15.1508 20.197H19.9774C20.158 20.197 20.3129 20.0428 20.3129 19.863V4.13706C20.2613 3.95718 20.1322 3.82871 19.9516 3.82871ZM8.69811 8.68524C8.64649 8.63384 8.64649 8.53106 8.69811 8.47967C8.72392 8.45397 8.74973 8.42828 8.80135 8.42828H9.34338V4.13706C9.34338 3.95718 9.18851 3.80301 9.00784 3.80301H4.18124C4.00057 3.80301 3.8457 3.95718 3.8457 4.13706V19.8373C3.8457 20.0171 4.00057 20.1713 4.18124 20.1713H9.00784C9.18851 20.1713 9.34338 20.0171 9.34338 19.8373V15.5717H8.80135C8.72392 15.5717 8.64649 15.4947 8.6723 15.4176C8.6723 15.3919 8.69811 15.3405 8.72392 15.3148L11.7954 12.2056C11.8986 12.0771 11.8986 11.9229 11.7954 11.7944L8.69811 8.68524Z" fill="white"/>
</svg>
