<svg width="88" height="69" viewBox="0 0 88 69" fill="none" xmlns="http://www.w3.org/2000/svg">
<path fill-rule="evenodd" clip-rule="evenodd" d="M134.937 182.626C140.858 179.463 154.168 166.165 159.769 157.816C170.363 142.025 180.894 120.568 179.94 116.719C179.509 114.982 178.649 114.549 178.219 115.852C177.821 117.063 176.329 115.577 176.718 114.55C177.545 112.371 171.386 113.732 169.848 116.719C168.882 118.594 159.105 139.567 157.224 139.567C155.712 139.567 151.296 151.393 150.675 152.578C149.71 154.42 145.115 157.102 145.115 159.241C145.115 164.866 130.238 173.289 126.238 176.481C123.983 178.281 125.565 183.964 128.188 184.675C130.246 185.232 129.81 185.364 134.937 182.626ZM94.6408 176.481C117.474 171.876 135.027 147.954 149.632 131.478C159.401 120.455 177.031 86.9725 174.018 85.1675C172.682 84.3681 169.173 83.7605 167.553 86.9971C165.299 91.4969 160.675 99.3308 158.372 102.221C155.604 105.695 153.252 114.697 149.191 116.274C145.681 117.637 143.759 128.741 140.911 131.791C140.17 132.584 134.178 138.768 134.42 139.567C136.451 146.272 109.523 157.313 103.286 161.947C99.6892 164.619 92.035 170.144 87.2191 170.144C85.8088 170.144 92.4428 176.924 94.6408 176.481ZM48.7315 174.743C52.4792 174.358 69.5445 171.964 71.8569 168.787C74.5675 165.075 85.875 162.116 89.8753 160.588C92.2044 159.699 97.2839 154.715 99.3808 154.715C103.034 154.715 125.835 134.532 137.818 120.691C164.016 90.4304 175.072 64.945 175.313 34.2608C175.428 19.6692 173.018 13.0262 165.542 7.31399C153.691 -1.74051 134.757 -3.11141 107.666 7.31399C87.2134 15.1859 75.3855 26.412 39.2619 54.5949C19.5586 69.9681 17.508 71.9118 19.3568 73.4637C21.2665 75.0701 20.8949 77.6994 24.3999 75.2707C25.3854 74.5882 26.5328 74.2433 26.9502 74.5036C27.54 74.8729 29.2607 69.7844 31.3048 71.0655C32.0609 71.5375 39.0642 65.9741 38.8871 66.2637C36.5796 70.0504 49.6759 55.4322 52.0322 56.7811C53.564 57.663 55.2434 53.7744 55.2434 53.7744C57.8143 56.1227 66.6114 42.7764 68.7071 44.0883C72.5255 46.4711 74.8976 35.6356 77.815 37.4591C79.9792 38.8119 91.9633 29.0218 94.7734 27.2609C109.247 18.2004 124.963 13.1875 142.04 13.1875C154.27 13.1875 159.598 15.8791 162.962 23.7583C166.894 32.9667 164.227 53.0343 157.224 71.7729C146.013 101.769 113.53 137.646 83.7762 152.512C50.9278 168.924 16.9542 167.251 13.1389 149.065C11.4886 141.197 14.4888 132.788 24.3999 117.486C30.6779 107.792 40.7634 90.9497 50.0064 82.1205C52.1439 80.0784 55.6705 76.6396 57.8433 74.4785C67.4638 64.91 69.8403 62.4286 68.9044 64.1925C68.4496 65.0497 74.528 60.0046 74.528 59.4826C74.528 58.2682 77.6978 57.9564 78.1748 56.6998C78.8402 54.9445 93.3998 46.1284 93.1407 45.7043C92.9254 45.3522 106.554 41.4637 109.024 39.4894C114.46 35.1387 126.304 28.9241 126.121 39.4894C126.007 46.067 124.162 46.8433 122.2 47.6537C103.536 55.363 88.289 67.9134 61.4541 92.3404C42.477 109.615 25.1868 127.743 23.8605 136.011C23.0363 141.151 26.5864 146.052 30.7719 145.552C31.749 145.435 32.1538 145.63 31.8763 146.085C31.2291 147.144 35.7027 146.988 41.7312 145.74C57.9451 142.387 93.5985 117.094 110.121 97.532C113.206 93.8782 122.18 85.6898 122.2 80.9558C122.204 79.7564 124.162 79.8999 124.162 78.7266C124.162 74.6285 131.438 70.668 133.131 67.0886C135.86 61.3188 135.678 51.6825 142.884 51.6596C146.861 51.6463 145.748 55.3647 145.748 57.7986C145.748 69.3213 123.145 99.6336 103.427 120.691C99.4799 124.905 98.53 132.386 93.9015 135.877C93.2915 136.337 91.8371 139.395 91.4597 139.159C90.7027 138.686 87.8821 141.058 86.811 143.068C84.4177 147.563 98.464 136.142 101.667 133.243C102.976 132.059 111.858 122.33 112.347 122.636C114.406 123.923 117.114 116.417 117.672 116.545C120.011 117.082 136.219 100.525 145.748 83.7808C149.608 76.9984 151.444 66.8526 154.929 60.0621C158.702 52.6937 155.352 45.4891 149.986 42.4936C147.742 41.2428 141.367 43.3841 138.856 43.4481L138.827 38.4376C138.777 29.572 133.757 24.5628 124.923 24.5628C117.327 24.5628 99.8379 31.9081 89.3842 39.4894C82.0589 44.802 74.1964 49.3884 67.3442 55.3772C66.4462 56.1627 62.4788 59.6227 58.5277 63.0674C29.2947 88.5515 5.59391 120.098 0.929645 139.73C-2.15941 152.734 2.58586 164.453 13.1389 169.88C20.7714 173.805 36.6738 175.977 48.7315 174.743ZM148.245 164.449C149.926 162.77 151.72 161.707 150.675 163.624C149.631 165.542 142.253 173.213 141.242 172.15C140.232 171.088 146.563 166.127 148.245 164.449ZM67.2417 153.811C69.5091 152.764 67.7406 152.497 64.901 153.457C61.399 154.64 56.0322 156.282 52.2068 156.435C44.5877 156.743 62.3865 153.387 64.3975 152.248C65.8545 151.422 62.0344 149.033 60.0367 149.854C53.364 152.596 42.4637 153.795 35.3435 152.512C27.8409 151.154 28.2125 151.144 28.6129 152.693C28.8369 153.559 29.3391 153.992 29.8779 153.782C30.3696 153.591 30.7719 153.723 30.7719 154.075C30.7719 154.427 30.4781 154.715 30.1189 154.715C28.9525 154.715 29.4299 156.696 30.6087 156.748C31.2369 156.776 32.1924 156.905 32.7312 157.036C37.7089 158.246 43.0334 159.303 43.8335 159.241C51.7398 158.631 60.007 157.151 67.2417 153.811ZM41.6507 154.997C42.0928 154.816 51.1865 154.14 51.8219 154.307C52.4573 154.475 45.1622 157.023 44.0846 157.036C43.007 157.049 41.2085 155.178 41.6507 154.997ZM36.5093 156.02C36.0319 155.239 37.7912 154.594 39.5885 155.376C40.8476 155.923 42.2916 156.703 40.9123 156.748C40.1253 156.773 36.7314 156.384 36.5093 156.02ZM33.0577 154.715C32.3393 154.403 32.0454 154.122 32.4046 154.092C32.7638 154.061 33.7193 153.857 34.5271 153.638C35.6073 153.345 35.9966 153.523 35.9966 154.307C35.9966 155.472 35.0875 155.598 33.0577 154.715ZM40.2951 133.833C33.0035 131.003 75.0942 87.6979 103.263 69.0485C106.291 67.0435 109.604 63.6345 113.158 62.5409C114.865 62.0169 126.121 56.5091 126.121 57.6717C126.121 60.5496 115.273 78.6679 107.666 88.4953C89.1576 112.407 51.0904 138.024 40.2951 133.833ZM168.85 133.733C169.063 133.172 173.444 124.409 173.615 124.582C175.748 125.296 171.68 133.346 171.443 133.733C170.799 134.788 168.409 134.897 168.85 133.733ZM72.3291 117.486C79.0545 113.818 87.1572 107.547 95.753 99.3574C100.261 95.062 103.794 88.3528 108.212 84.6416C109.986 83.1518 111.131 80.2587 110.562 78.7035C110.083 77.3928 109.513 77.8546 104.291 83.7808C93.0407 96.5502 82.1468 106.803 74.2393 112.062C66.9791 116.892 65.2027 118.378 66.6911 118.378C67.8297 118.378 68.7075 119.46 72.3291 117.486ZM62.5193 85.9531C63.9162 84.8339 66.5278 82.6186 68.3238 81.0297C71.8315 77.9266 72.3395 77.546 82.5164 70.3863C88.6528 66.0683 94.6741 61.6107 101.139 57.7986C106.115 54.8645 107.516 53.6323 105.876 53.6323C104.948 53.6323 104.914 54.8284 103.427 54.6583C99.8689 54.2514 81.7118 65.0417 81.7118 68.253C81.7118 68.7212 79.0816 70.1491 78.6868 70.1491C76.2107 70.1491 73.2219 74.939 73.2219 74.5036C73.2219 74.2162 72.1933 75.0216 70.9361 76.2934C67.7755 79.4907 63.3848 80.405 60.561 83.7808C58.3177 86.4631 59.278 88.5508 62.5193 85.9531ZM8.54809 73.4637C9.79415 73.0158 12.3069 74.1872 19.3568 66.2637C31.024 53.1501 48.5063 34.7686 57.3809 28.4427C58.625 27.556 60.1977 26.3344 60.8762 25.728C63.1946 23.6561 80.7708 11.6037 82.9044 10.5063C85.0204 9.41888 85.0256 9.40302 83.7762 8.046C82.7836 6.96845 78.7704 3.38959 77.1272 3.75428C74.1503 4.41601 70.4284 8.046 67.7256 8.04599C66.5383 8.04599 56.4574 13.9907 49.9508 18.5282C28.594 33.4218 8.63597 52.8105 3.40158 63.7505C2.09672 66.4771 2.10256 69.2731 3.41133 68.4545C3.73265 68.2537 3.99586 68.516 3.99586 69.0386C3.99586 70.3229 7.37974 73.8839 8.54809 73.4637ZM150.547 45.8787C150.935 45.4876 154.123 46.8909 154.519 49.3867C154.519 49.7144 152.688 48.0976 151.986 47.6537C151.284 47.2103 149.594 46.6745 150.547 45.8787ZM140.489 45.0436C141.387 44.7529 145.655 43.6448 147.092 43.6633L148.937 44.5481C147.024 44.7573 138.785 45.5953 140.489 45.0436ZM133.131 29.722C129.537 25.5539 122.085 27.6823 122.305 26.7068C122.524 25.7313 129.712 24.5628 133.701 29.0569C137.689 33.5509 138.294 38.4376 137.071 38.4376C135.848 38.4376 136.725 33.89 133.131 29.722Z" fill="#26A159"/>
</svg>
