<svg width="72" height="91" viewBox="0 0 72 91" fill="none" xmlns="http://www.w3.org/2000/svg">
<path fill-rule="evenodd" clip-rule="evenodd" d="M238.221 27.0161C235.71 24.4043 201.557 -1.09379 202.069 0.150749C202.217 0.510139 197.896 -0.940285 199.777 1.20095C200.378 1.88515 200.495 2.29006 200.077 2.24285C199.272 2.15223 200.744 5.02969 201.572 4.25202C202.319 3.55283 202.457 6.09782 203.485 6.68679C204.276 7.13996 217.338 18.9953 217.555 19.4276C218.888 22.0782 229.481 29.6244 234.401 32.3859C237.491 34.1198 239.675 34.9764 237.734 33.6938C236.593 32.9388 241.48 34.3566 240.961 32.6373C240.547 31.263 238.74 27.5549 238.221 27.0161ZM213.696 52.3137C208.512 47.3453 196.992 34.7027 190.083 31.8633C188.531 31.2254 187.685 31.4938 188.619 32.3285C189.04 32.7041 188.994 33.074 188.5 33.2818C186.58 34.0892 187.035 35.4305 190.31 38.6253C193.868 42.0959 198.91 47.7652 201.068 50.7231C202.682 52.9348 216.047 66.2409 217.797 65.854C218.449 65.71 219.413 65.5647 219.939 65.5312C220.584 65.4905 220.919 64.7698 220.966 63.3197C221.045 60.9282 215.577 54.1166 213.696 52.3137ZM158.402 32.6425C153.173 26.634 144.699 21.4438 142.49 22.8966C140.727 24.0566 141.776 28.0894 144.534 30.7504C145.882 32.0507 147.471 33.2789 148.065 33.48C148.659 33.6811 149.032 33.8932 148.894 33.9512C148.204 34.2415 155.622 39.8919 156.992 40.1201C159.009 40.4554 160.664 40.0253 161.185 39.0304C161.409 38.6039 161.827 38.3337 162.114 38.4308C163.043 38.7452 161.168 35.8215 158.402 32.6425ZM160.535 37.7023C160.008 37.7333 157.011 37.17 156.794 36.7166C156.461 36.0171 158.984 36.2064 160.073 36.7402C161.676 37.5265 161.726 37.6318 160.535 37.7023ZM139.736 44.035C139.307 43.1821 136.986 42.1216 135.88 41.2273C132.872 38.796 97.2383 16.7832 96.2053 12.7826C96.0374 12.1322 90.2564 11.4803 89.1025 11.1972C87.9065 10.9042 87.2276 11.7521 87.3634 13.3683C87.5547 15.6472 97.728 24.4852 97.1047 24.7474C96.8634 24.8489 96.0876 24.4304 95.3797 23.8172C92.4012 21.237 93.5822 24.5915 97.891 28.8122C101.045 31.9006 132.122 51.9234 134.756 54.2749C135.595 55.0247 136.879 54.6239 137.021 53.5678C137.103 52.9557 134.305 53.8487 134.956 52.2356C135.037 52.0357 135.753 52.9132 136.308 52.3929C139.804 49.1162 141.707 52.3251 143.187 52.4922C144.218 52.6082 143.959 51.3424 142.429 48.7814C141.577 47.3546 140.474 45.5027 139.736 44.035ZM100.5 29.1202C99.5121 29.5357 97.3709 27.1078 99.4686 27.0689C100.132 27.1432 100.94 28.9351 100.5 29.1202ZM92.011 20.2271C91.6947 20.3601 91.1038 21.6829 91.426 21.8786C91.7482 22.0742 93.4988 22.6515 93.6308 22.596C94.0864 22.4043 92.5811 19.9873 92.011 20.2271ZM99.0868 44.4568C97.5683 43.0648 97.9118 41.2055 95.7837 41.3312C95.2787 41.3612 91.6402 38.7676 91.462 38.4132C90.7479 36.9927 84.97 32.9554 84.0566 33.3396C83.0432 33.7659 78.9176 29.4108 77.632 31.8633C77.3428 32.4155 77.0313 32.4977 76.5989 32.1365C76.2773 31.867 79.951 38.077 79.8548 38.1175C79.3161 38.3441 77.3214 36.9324 77.4024 37.1205C78.0669 38.6636 89.6144 48.1075 91.462 48.7814C92.5808 49.1899 94.6839 53.4291 95.7837 52.3982C96.1658 52.04 96.6031 51.9946 96.7552 52.2972C97.2323 53.246 98.7742 52.173 98.5555 51.0439C98.3224 49.8359 100.335 50.0235 99.4092 49.1976C98.5941 48.4693 98.172 45.8971 99.0868 46C100.076 46.1115 76.3454 29.9219 99.0868 44.4568ZM86.95 16.6755C87.0875 16.9488 90.0266 20.1952 90.5224 20.4834C91.0182 20.7716 91.0302 19.5052 90.8927 19.2319C90.6658 18.7805 86.7776 16.3326 86.95 16.6755ZM75.0469 33.4675C74.9295 33.5168 74.2992 33.8142 74.3343 34.3136C74.3714 34.8339 76.6198 36.3732 76.8399 36.0698C77.21 35.5607 75.487 33.2823 75.0469 33.4675ZM48.5452 126.711C43.4459 123.62 32.3352 116.99 30.6028 116.61C29.8633 116.921 25.6673 117.025 25.0365 117.612C23.6728 118.878 24.3806 119.72 35.291 129.81C48.3199 141.858 71.1012 162.793 71.6571 162.559C72.0812 162.381 74.0877 163.814 74.7223 163.932C76.6701 164.291 75.3152 163.149 77.6221 162.427C79.6733 161.786 78.8157 157.742 80.1335 157.187C80.8938 156.868 79.0101 155.435 79.5 154.76C80.1352 153.885 71.0146 143.081 48.5452 126.711ZM50.8098 103.291C46.6656 99.6823 26.0752 82.9268 24.7275 82.4237C21.8898 81.3654 21.1816 84.0729 20.1917 83.7379C19.1343 83.3801 18.1768 85.0972 18.892 86.0692C19.3325 86.6693 19.0534 88.9986 20.1243 88.8908C23.3749 88.566 44.4495 108.047 49.6227 108.532C52.6492 108.816 53.3915 105.539 50.8098 103.291ZM90.1831 118.985C84.831 113.182 67.6798 100.085 59.4981 93.2381C50.3809 85.6076 46.5442 82.8682 46.1929 83.7379C46.1054 83.9541 45.5262 83.8744 44.9058 83.5609C41.3742 81.7756 46.6081 87.1025 45.7021 87C45.0154 86.9221 46.665 90.5041 47.4427 90.1792C48.1651 89.8773 45.5011 89.2233 50.8477 94.7337C53.3845 97.3468 81.5018 125.195 84.8153 123.801C86.3898 123.139 86.9308 124.942 88.7207 123.753C90.5837 122.514 90.8088 121.861 91.9673 122.253C92.4702 122.424 91.1876 120.074 90.1831 118.985ZM65.0198 69.1728C39.6642 47.8209 17.7077 34.0521 18.0029 38.0343C18.6664 46.974 31.2317 49.8676 34.851 57.0662C35.46 58.2774 63.4606 79.1321 64.2262 79.746C65.0678 80.4234 68.9883 80.2712 68.638 79.5744C68.5262 79.3521 70.129 76.914 69.6972 75.2772C69.2248 73.4866 69.0839 71.8106 69.3848 71.5528C69.8096 71.1893 65.6034 69.5261 65.0198 69.1728Z" fill="#FCE3B0"/>
<path d="M76.3286 148.7L75.7233 148.416C73.6424 145.918 55.5291 130.659 52.9532 128.641C49.411 125.865 50.0046 126.267 46.1929 123.801C42.9648 121.715 40.1193 119.137 36.463 117.581C34.8569 116.929 33.542 115.798 32.7352 114.373C35.0619 114.164 36.4284 115.597 37.9872 116.473C42.0951 118.784 45.806 121.604 49.5298 124.384C56.2515 129.398 74.3982 144.387 80.086 150.457C80.4116 150.805 80.8734 151.096 80.5511 151.859C78.7312 151.226 77.8843 149.535 76.3286 148.7Z" fill="#FCE3B0"/>
<path fill-rule="evenodd" clip-rule="evenodd" d="M220.221 66.0161C217.71 63.4043 183.557 37.9062 184.069 39.1507C184.217 39.5101 179.896 38.0597 181.777 40.201C182.378 40.8852 182.495 41.2901 182.077 41.2429C181.272 41.1522 182.744 44.0297 183.572 43.252C184.319 42.5528 184.457 45.0978 185.485 45.6868C186.276 46.14 199.338 57.9953 199.555 58.4276C200.888 61.0782 211.481 68.6244 216.401 71.3859C219.491 73.1198 221.675 73.9764 219.734 72.6938C218.593 71.9388 223.48 73.3566 222.961 71.6373C222.547 70.263 220.74 66.5549 220.221 66.0161ZM195.696 91.3137C190.512 86.3453 178.992 73.7027 172.083 70.8633C170.531 70.2254 169.685 70.4938 170.619 71.3285C171.04 71.7041 170.994 72.074 170.5 72.2818C168.58 73.0892 169.035 74.4305 172.31 77.6253C175.868 81.0959 180.91 86.7652 183.068 89.7231C184.682 91.9348 198.047 105.241 199.797 104.854C200.449 104.71 201.413 104.565 201.939 104.531C202.584 104.49 202.919 103.77 202.966 102.32C203.045 99.9282 197.577 93.1166 195.696 91.3137ZM140.402 71.6425C135.173 65.634 126.699 60.4438 124.49 61.8966C122.727 63.0566 123.776 67.0894 126.534 69.7504C127.882 71.0507 129.471 72.2789 130.065 72.48C130.659 72.6811 131.032 72.8932 130.894 72.9512C130.204 73.2415 137.622 78.8919 138.992 79.1201C141.009 79.4554 142.664 79.0253 143.185 78.0304C143.409 77.6039 143.827 77.3337 144.114 77.4308C145.043 77.7452 143.168 74.8215 140.402 71.6425ZM142.535 76.7023C142.008 76.7333 139.011 76.17 138.794 75.7166C138.461 75.0171 140.984 75.2064 142.073 75.7402C143.676 76.5265 143.726 76.6318 142.535 76.7023ZM121.736 83.035C121.307 82.1821 118.986 81.1216 117.88 80.2273C114.872 77.796 79.2383 55.7832 78.2053 51.7826C78.0374 51.1322 72.2564 50.4803 71.1025 50.1972C69.9065 49.9042 69.2276 50.7521 69.3634 52.3683C69.5547 54.6472 79.728 63.4852 79.1047 63.7474C78.8634 63.8489 78.0876 63.4304 77.3797 62.8172C74.4012 60.237 75.5822 63.5915 79.891 67.8122C83.0446 70.9006 114.122 90.9234 116.756 93.2749C117.595 94.0247 118.879 93.6239 119.021 92.5678C119.103 91.9557 116.305 92.8487 116.956 91.2356C117.037 91.0357 117.753 91.9132 118.308 91.3929C121.804 88.1162 123.707 91.3251 125.187 91.4922C126.218 91.6082 125.959 90.3424 124.429 87.7814C123.577 86.3546 122.474 84.5027 121.736 83.035ZM82.5 68.1202C81.5121 68.5357 79.3709 66.1078 81.4686 66.0689C82.1321 66.1432 82.9401 67.9351 82.5 68.1202ZM74.011 59.2271C73.6947 59.3601 73.1038 60.6829 73.426 60.8786C73.7482 61.0742 75.4988 61.6515 75.6308 61.596C76.0864 61.4043 74.5811 58.9873 74.011 59.2271ZM81.0868 83.4568C79.5683 82.0648 79.9118 80.2055 77.7837 80.3312C77.2787 80.3612 73.6402 77.7676 73.462 77.4132C72.7479 75.9927 66.97 71.9554 66.0566 72.3396C65.0432 72.7659 60.9176 68.4108 59.632 70.8633C59.3428 71.4155 59.0313 71.4977 58.5989 71.1365C58.2773 70.867 61.951 77.077 61.8548 77.1175C61.3161 77.3441 59.3214 75.9324 59.4024 76.1205C60.0669 77.6636 71.6144 87.1075 73.462 87.7814C74.5808 88.1899 76.6839 92.4291 77.7837 91.3982C78.1658 91.04 78.6031 90.9946 78.7552 91.2972C79.2323 92.246 80.7742 91.173 80.5555 90.0439C80.3224 88.8359 82.3352 89.0235 81.4092 88.1976C80.5941 87.4693 80.172 84.8971 81.0868 85C82.0756 85.1115 58.3454 68.9219 81.0868 83.4568ZM68.95 55.6755C69.0875 55.9488 72.0266 59.1952 72.5224 59.4834C73.0182 59.7716 73.0302 58.5052 72.8927 58.2319C72.6658 57.7805 68.7776 55.3326 68.95 55.6755ZM57.0469 72.4675C56.9295 72.5168 56.2992 72.8142 56.3343 73.3136C56.3714 73.8339 58.6198 75.3732 58.8399 75.0698C59.21 74.5607 57.487 72.2823 57.0469 72.4675ZM30.5452 165.711C25.4459 162.62 14.3352 155.99 12.6028 155.61C11.8633 155.921 7.66733 156.025 7.03653 156.612C5.67282 157.878 6.38056 158.72 17.291 168.81C30.3199 180.858 53.1012 201.793 53.6571 201.559C54.0812 201.381 56.0877 202.814 56.7223 202.932C58.6701 203.291 57.3152 202.149 59.6221 201.427C61.6733 200.786 60.8157 196.742 62.1335 196.187C62.8938 195.868 61.0101 194.435 61.5 193.76C62.1352 192.885 53.0146 182.081 30.5452 165.711ZM32.8098 142.291C28.6656 138.682 8.07516 121.927 6.72749 121.424C3.88984 120.365 3.18156 123.073 2.19171 122.738C1.1343 122.38 0.176803 124.097 0.891969 125.069C1.33251 125.669 1.05343 127.999 2.12426 127.891C5.37491 127.566 26.4495 147.047 31.6227 147.532C34.6492 147.816 35.3915 144.539 32.8098 142.291ZM72.1831 157.985C66.831 152.182 49.6798 139.085 41.4981 132.238C32.3809 124.608 28.5442 121.868 28.1929 122.738C28.1054 122.954 27.5262 122.874 26.9058 122.561C23.3742 120.776 28.6081 126.103 27.7021 126C27.0154 125.922 28.665 129.504 29.4427 129.179C30.1651 128.877 27.5011 128.223 32.8477 133.734C35.3845 136.347 63.5018 164.195 66.8153 162.801C68.3898 162.139 68.9308 163.942 70.7207 162.753C72.5837 161.514 72.8088 160.861 73.9673 161.253C74.4702 161.424 73.1876 159.074 72.1831 157.985ZM47.0198 108.173C21.6642 86.8209 -0.292262 73.0521 0.00293718 77.0343C0.666391 85.974 13.2317 88.8676 16.851 96.0662C17.46 97.2774 45.4606 118.132 46.2262 118.746C47.0678 119.423 50.9883 119.271 50.638 118.574C50.5262 118.352 52.129 115.914 51.6972 114.277C51.2248 112.487 51.0839 110.811 51.3848 110.553C51.8096 110.189 47.6034 108.526 47.0198 108.173Z" fill="#FCE3B0"/>
<path d="M58.3286 187.7L57.7233 187.416C55.6424 184.918 37.5291 169.659 34.9532 167.641C31.411 164.865 32.0046 165.267 28.1929 162.801C24.9648 160.715 22.1193 158.137 18.463 156.581C16.8569 155.929 15.542 154.798 14.7352 153.373C17.0619 153.164 18.4284 154.597 19.9872 155.473C24.0951 157.784 27.806 160.604 31.5298 163.384C38.2515 168.398 56.3982 183.387 62.086 189.457C62.4116 189.805 62.8734 190.096 62.5511 190.859C60.7312 190.226 59.8843 188.535 58.3286 187.7Z" fill="#FCE3B0"/>
</svg>
