<svg width="49" height="78" viewBox="0 0 49 78" fill="none" xmlns="http://www.w3.org/2000/svg">
<path fill-rule="evenodd" clip-rule="evenodd" d="M14.107 26.3393C7.07371 37.6226 0.513702 54.6519 2.15257 57.372C2.60665 58.1243 1.96079 60.559 1.46732 62.4193C1.25777 63.2093 1.0757 63.8956 1.017 64.3056C-0.416509 74.3218 5.69198 86.7468 10.7375 95.2196C17.6605 106.845 37.2076 124.847 53.8051 134.884C62.3759 140.067 79.1838 146.706 80.3218 145.359C80.5758 145.058 77.2826 144.675 73.728 142.935C74.3672 142.517 77.692 144.04 81.8526 144.837C84.3602 142.576 83.6986 142.19 80.8594 141.45C78.4386 140.82 73.5519 139.282 68.6873 136.72C39.7844 121.495 25.4465 100.118 18.0486 85.2331C8.53069 66.0829 7.87538 50.5964 27.2465 26.2428C34.5093 17.6217 43.962 16.4623 48.817 16.7997C57.2124 17.3828 69.851 25.9689 75.2882 32.5734C82.1739 40.9363 79.1896 56.945 70.5868 68.4673C62.3739 79.4671 52.3786 79.4324 43.0096 68.3717C36.1877 60.318 37.9633 49.054 43.3894 46.5025C48.8155 43.9511 47.5087 46.0168 47.5087 46.0168C50.7993 47.4965 52.0761 48.7535 52.4402 50.8702C52.8293 53.1329 52.2535 53.9058 49.753 54.4764C45.2619 55.5015 44.432 56.3603 45.2372 59.1479C46.0849 62.0836 47.8773 63.6927 51.1984 64.4998C53.6388 65.0927 57.3238 64.3928 58.3867 63.1343C58.6549 62.8169 59.8067 62.2038 60.9461 61.7715C63.7445 60.7104 67.5081 56.2151 68.2921 52.9971C69.4241 48.3532 66.5709 41.1838 62.3148 37.9755C58.1621 34.8457 48.6411 33.3742 42.6286 34.9334C37.2258 36.3345 30.8625 40.4725 31.0981 41.3538C34.3117 39.444 35.3313 38.9716 38.2206 37.9098C37.1253 38.3789 32.7008 41.2135 32.2047 41.7839C32.0136 42.0035 31.5995 42.1945 31.0769 42.4355C30.2426 42.8203 29.132 43.3326 28.2112 44.2925C24.5727 48.0853 22.8582 53.9597 23.4823 57.5434C24.166 61.4697 26.7505 64.4673 25.7208 64.9684C24.7825 65.5598 23.4846 59.3089 22.5099 59.7433C22.6401 60.4184 22.9069 62.4383 23.102 64.2327C23.6544 69.3033 27.3826 75.2693 33.1163 80.2563C37.6131 84.168 46.4937 87.499 52.3179 87.4581C63.1139 87.3823 76.3951 80.6091 83.5976 71.5065C98.9037 52.1611 90.689 27.5516 79.1426 14.4756C67.5962 1.39966 62.6012 0.126309 60.5963 0.0678621C60.2116 0.0567179 57.5322 3.69033 57.4464 3.96064C57.3955 4.1209 67.8262 6.81614 66.1007 9.38228C64.524 8.55995 56.2183 5.5549 54.6017 5.19764C48.1839 3.77663 35.5508 6.81393 28.2894 11.5235C24.793 13.7912 16.5807 22.3701 14.107 26.3393ZM51.4846 84.4838C58.7126 84.5596 62.4777 81.8718 62.8748 83.2479C63.272 84.6241 57.0959 85.5797 53.9982 85.8078C50.9004 86.0359 44.1316 84.9883 41.0495 83.3623C41.5888 83.2269 44.2566 84.408 51.4846 84.4838Z" fill="#DDDFE4"/>
</svg>
