<svg width="83" height="72" viewBox="0 0 83 72" fill="none" xmlns="http://www.w3.org/2000/svg">
<path fill-rule="evenodd" clip-rule="evenodd" d="M100.453 133.268C104.861 130.96 114.769 121.256 118.939 115.163C126.826 103.64 134.666 87.9818 133.955 85.173C133.634 83.9055 132.994 83.5898 132.674 84.541C132.378 85.4241 131.267 84.3397 131.557 83.5902C132.172 82.0002 127.587 82.9939 126.442 85.173C125.723 86.5414 118.445 101.846 117.045 101.846C115.919 101.846 112.631 110.476 112.17 111.341C111.451 112.685 108.03 114.642 108.03 116.203C108.03 120.308 96.9551 126.454 93.9774 128.783C92.2985 130.097 93.4764 134.244 95.4288 134.763C96.9607 135.169 96.6365 135.266 100.453 133.268ZM70.4548 128.783C87.4527 125.423 100.52 107.966 111.392 95.9434C118.665 87.8994 131.79 63.4664 129.546 62.1493C128.552 61.5659 125.94 61.1225 124.734 63.4844C123.056 66.768 119.614 72.4846 117.899 74.5939C115.839 77.1285 114.087 83.6977 111.064 84.8488C108.451 85.8435 107.021 93.9465 104.901 96.1719C104.349 96.7502 99.8881 101.263 100.068 101.846C101.58 106.739 81.5335 114.796 76.8906 118.177C74.2131 120.127 68.515 124.159 64.9298 124.159C63.8799 124.159 68.8185 129.107 70.4548 128.783ZM36.2779 127.515C39.0678 127.234 51.772 125.487 53.4935 123.169C55.5114 120.46 63.9291 118.301 66.9072 117.186C68.641 116.537 72.4224 112.9 73.9835 112.9C76.7032 112.9 93.6771 98.1717 102.598 88.0715C122.101 65.9898 130.332 47.3923 130.51 25.0011C130.596 14.3532 128.803 9.50557 123.237 5.33723C114.414 -1.27011 100.319 -2.2705 80.1516 5.33723C64.9255 11.0816 56.1203 19.2736 29.2283 39.8395C14.5603 51.0578 13.0337 52.4762 14.4101 53.6087C15.8317 54.7809 15.5551 56.6995 18.1644 54.9273C18.898 54.4292 19.7522 54.1776 20.0629 54.3675C20.502 54.637 21.783 50.9237 23.3047 51.8586C23.8675 52.203 29.0811 48.1433 28.9493 48.3546C27.2315 51.1179 36.9809 40.4505 38.7351 41.4348C39.8755 42.0784 41.1256 39.2408 41.1256 39.2408C43.0396 40.9544 49.5885 31.2152 51.1486 32.1725C53.9912 33.9113 55.7571 26.0043 57.9289 27.335C59.54 28.3222 68.4615 21.178 70.5535 19.8931C81.328 13.2814 93.0279 9.62333 105.741 9.62333C114.845 9.62334 118.811 11.5875 121.316 17.3371C124.244 24.0568 122.258 38.7007 117.045 52.3748C108.699 74.2637 84.5166 100.444 62.3667 111.292C37.9129 123.269 12.6214 122.048 9.78119 108.777C8.55261 103.036 10.7861 96.8994 18.1643 85.7327C22.838 78.6592 30.3461 66.3687 37.227 59.9258C38.8182 58.4356 41.4436 55.9262 43.0611 54.3492C50.223 47.3667 51.9922 45.556 51.2955 46.8432C50.9569 47.4687 55.482 43.7872 55.482 43.4062C55.482 42.52 57.8417 42.2925 58.1968 41.3755C58.6922 40.0946 69.531 33.6612 69.3381 33.3518C69.1778 33.0948 79.3233 30.2573 81.1623 28.8165C85.2095 25.6417 94.0265 21.1068 93.8901 28.8165C93.8055 33.6165 92.4315 34.1829 90.971 34.7743C77.0765 40.4 65.7262 49.5584 45.7492 67.3836C31.6218 79.9893 18.7502 93.218 17.7628 99.2516C17.1492 103.002 19.7921 106.578 22.908 106.213C23.6353 106.128 23.9367 106.271 23.7301 106.602C23.2483 107.375 26.5787 107.261 31.0666 106.351C43.1369 103.904 69.6789 85.4473 81.9787 71.172C84.2759 68.5057 90.9565 62.5304 90.971 59.0758C90.9738 58.2006 92.4315 58.3054 92.4315 57.4492C92.4315 54.4586 97.8481 51.5685 99.1085 48.9565C101.14 44.7462 101.005 37.7143 106.369 37.6975C109.33 37.6879 108.501 40.4012 108.501 42.1773C108.501 50.5858 91.6746 72.7056 76.9954 88.0715C74.0572 91.1469 73.3501 96.6063 69.9044 99.1538C69.4503 99.4895 68.3676 101.721 68.0866 101.548C67.5232 101.203 65.4233 102.934 64.626 104.401C62.8442 107.681 73.301 99.3467 75.6851 97.2316C76.6597 96.3673 83.2724 89.2681 83.6361 89.4908C85.1687 90.4305 87.1847 84.953 87.6004 85.0462C89.3414 85.4382 101.407 73.356 108.501 61.1373C111.375 56.1881 112.742 48.7843 115.336 43.8291C118.145 38.4521 115.651 33.1948 111.656 31.0088C109.986 30.0961 105.24 31.6586 103.371 31.7054L103.349 28.049C103.312 21.5796 99.5744 17.9242 92.9979 17.9242C87.3432 17.9242 74.3238 23.2843 66.5415 28.8165C61.0883 32.6933 55.2351 36.0402 50.134 40.4104C49.4655 40.9836 46.512 43.5084 43.5706 46.0222C21.8083 64.6187 4.16436 87.639 0.692065 101.965C-1.60756 111.455 1.92503 120.007 9.78119 123.967C15.4632 126.831 27.3016 128.416 36.2779 127.515ZM110.36 120.003C111.612 118.778 112.947 118.002 112.17 119.401C111.392 120.801 105.9 126.399 105.147 125.623C104.395 124.848 109.108 121.228 110.36 120.003ZM50.0577 112.241C51.7457 111.477 50.4291 111.281 48.3152 111.982C45.7081 112.846 41.7129 114.044 38.8651 114.155C33.1931 114.38 46.4433 111.931 47.9403 111.1C49.025 110.497 46.1812 108.754 44.694 109.353C39.7266 111.354 31.6118 112.229 26.3113 111.292C20.726 110.302 21.0026 110.294 21.3007 111.424C21.4674 112.057 21.8413 112.372 22.2424 112.219C22.6085 112.08 22.908 112.177 22.908 112.433C22.908 112.69 22.6892 112.9 22.4218 112.9C21.5535 112.9 21.9089 114.346 22.7865 114.384C23.2542 114.404 23.9654 114.498 24.3665 114.594C28.0722 115.477 32.036 116.248 32.6316 116.203C38.5174 115.757 44.6719 114.678 50.0577 112.241ZM31.0066 113.106C31.3357 112.974 38.1055 112.48 38.5785 112.603C39.0516 112.725 33.6207 114.584 32.8185 114.594C32.0163 114.604 30.6775 113.238 31.0066 113.106ZM27.1792 113.853C26.8238 113.282 28.1334 112.812 29.4714 113.382C30.4088 113.782 31.4837 114.351 30.4569 114.384C29.8711 114.402 27.3445 114.118 27.1792 113.853ZM24.6096 112.9C24.0748 112.672 23.8561 112.468 24.1234 112.446C24.3908 112.423 25.1021 112.274 25.7035 112.114C26.5077 111.9 26.7974 112.03 26.7974 112.603C26.7974 113.452 26.1207 113.544 24.6096 112.9ZM29.9974 97.6621C24.5693 95.5967 55.9035 63.9958 76.8738 50.3867C79.1279 48.9236 81.5941 46.436 84.2399 45.6379C85.5106 45.2556 93.8901 41.2364 93.8901 42.0847C93.8901 44.1848 85.8146 57.4063 80.1516 64.5777C66.3728 82.0268 38.034 100.72 29.9974 97.6621ZM125.7 97.589C125.858 97.1797 129.12 90.7848 129.247 90.9111C130.835 91.4323 127.807 97.3065 127.63 97.589C127.151 98.3585 125.371 98.4385 125.7 97.589ZM53.845 85.7327C58.8517 83.0565 64.8837 78.4803 71.2828 72.5041C74.639 69.3695 77.2689 64.4737 80.5576 61.7655C81.8785 60.6784 82.7308 58.5672 82.3074 57.4323C81.951 56.4758 81.526 56.8128 77.639 61.1373C69.2636 70.4556 61.1537 77.937 55.2671 81.7751C49.8622 85.2998 48.5398 86.3841 49.6478 86.3841C50.4955 86.3841 51.1489 87.1734 53.845 85.7327ZM46.5421 62.7225C47.5821 61.9058 49.5263 60.2893 50.8633 59.1298C53.4745 56.8653 53.8528 56.5876 61.4289 51.363C65.9971 48.212 70.4796 44.9591 75.2923 42.1773C78.997 40.0363 80.0398 39.1371 78.8185 39.1371C78.128 39.1371 78.1028 40.0099 76.9954 39.8858C74.3469 39.5888 60.8299 47.4628 60.8299 49.8063C60.8299 50.1479 58.8718 51.1899 58.5779 51.1899C56.7346 51.1899 54.5096 54.6852 54.5096 54.3675C54.5096 54.1578 53.7439 54.7455 52.808 55.6735C50.4551 58.0067 47.1864 58.6739 45.0843 61.1373C43.4143 63.0947 44.1292 64.6182 46.5421 62.7225ZM6.36359 53.6087C7.29121 53.2818 9.1618 54.1366 14.4101 48.3546C23.0957 38.7852 36.1102 25.3717 42.7169 20.7555C43.6431 20.1085 44.8138 19.217 45.319 18.7745C47.0449 17.2625 60.1294 8.46758 61.7177 7.66679C63.2929 6.87324 63.2968 6.86166 62.3667 5.87139C61.6278 5.08506 58.6402 2.47347 57.4169 2.7396C55.2008 3.22248 52.43 5.87139 50.4179 5.87139C49.5341 5.87139 42.0294 10.2095 37.1856 13.5206C21.2866 24.3888 6.429 38.5374 2.53228 46.5207C1.56089 48.5103 1.56525 50.5506 2.53956 49.9533C2.77875 49.8067 2.97469 49.9981 2.97469 50.3795C2.97469 51.3167 5.49381 53.9153 6.36359 53.6087ZM112.074 33.479C112.362 33.1936 114.736 34.2177 115.031 36.0389C115.031 36.2781 113.668 35.0983 113.145 34.7743C112.623 34.4508 111.364 34.0598 112.074 33.479ZM104.586 32.8697C105.254 32.6575 108.432 31.8489 109.502 31.8624L110.875 32.5081C109.451 32.6608 103.318 33.2723 104.586 32.8697ZM99.1085 21.689C96.4328 18.6475 90.8858 20.2006 91.0489 19.4887C91.2121 18.7769 96.5634 17.9242 99.5327 21.2037C102.502 24.4831 102.952 28.049 102.042 28.049C101.132 28.049 101.784 24.7306 99.1085 21.689Z" fill="#A8FFF8"/>
</svg>
